<?xml version="1.0" standalone="no"?>
<!DOCTYPE svg PUBLIC "-//W3C//DTD SVG 1.1//EN" "http://www.w3.org/Graphics/SVG/1.1/DTD/svg11.dtd" >
<!--
2013-9-30: Created.
-->
<svg>
<metadata>
Created by iconfont
</metadata>
<defs>

<font id="iconfont" horiz-adv-x="1024" >
  <font-face
    font-family="iconfont"
    font-weight="500"
    font-stretch="normal"
    units-per-em="1024"
    ascent="896"
    descent="-128"
  />
    <missing-glyph />
    
    <glyph glyph-name="wancheng" unicode="&#58920;" d="M512 896C228.266667 896 0 667.733333 0 384s228.266667-512 512-512 512 228.266667 512 512S795.733333 896 512 896z m268.8-390.4L512 187.73333300000002c-12.8-14.933333-29.866667-23.466667-49.066667-25.6h-6.4c-17.066667 0-32 6.4-44.8 17.066667l-6.4 6.4-136.533333 162.133333c-19.2 23.466667-14.933333 55.466667 6.4 74.666667 23.466667 19.2 55.466667 14.933333 74.666667-6.4l106.666666-128 241.066667 285.866667c19.2 23.466667 53.333333 25.6 74.666667 6.4 25.6-19.2 27.733333-51.2 8.533333-74.666667z"  horiz-adv-x="1024" />

    
    <glyph glyph-name="shangchuan" unicode="&#58938;" d="M254.368 15.104C115.424 26.496 6.56 133.856 6.56 247.488c0 145.92 102.56 253.12 235.488 269.92 17.056 139.456 131.456 235.52 269.952 235.52 138.432 0 252.864-96.032 269.92-235.648 133.056-16.672 235.52-124 235.52-269.792 0-113.632-108.864-220.96-247.936-232.384-50.656 0-93.664-0.096-157.28 0-12.448 0-22.56 9.024-22.56 21.216v157.344c0 12.288 9.824 22.208 22.656 22.208h84.192c23.488 0 30.592 14.848 16.256 33.184l-176.832 224.992c-14.304 18.272-37.696 18.272-52.128 0l-176.832-225.12c-14.336-18.304-7.104-33.184 16.256-33.184h88.608a22.4 22.4 0 0 0 22.432-22.24v-157.056c0-12.32-10.016-21.344-22.56-21.248-38.976-0.096-126.208-0.096-157.344-0.096z"  horiz-adv-x="1024" />

    
    <glyph glyph-name="zhuangtai" unicode="&#58993;" d="M128 895.744V-117.53l383.923 362.19L896-117.505V895.718z"  horiz-adv-x="1024" />

    
    <glyph glyph-name="ren2" unicode="&#58921;" d="M723.833081 580.1268660000001c2.719948-1.535983 5.439896-3.192715 8.100492-5.02341l8.100492-5.499248 0.148379-9.69685c0.444115-28.142967-2.925632-51.969629-10.316973-70.299089-6.79987-16.790408-16.851806-29.324886-30.331819-36.893258-9.163707-32.752961-19.924795-63.083757-35.17922-88.565105-17.557888-29.326932-40.735773-51.9113-73.489758-64.030315-14.661931-5.382591-52.086285-7.864108-88.094384-7.333012-34.763758 0.533143-69.64622 3.962242-83.48132 10.346649-29.798676 13.71742-50.728358 36.774555-66.573231 65.510016-13.597693 24.537859-23.294542 53.092195-31.749098 83.244936-13.95278 7.27366-24.417109 19.74981-31.453363 36.656875-7.715729 18.447141-11.233855 42.689265-10.760065 71.363328l0.11768 9.755178 8.100492 5.439896c2.069125 1.417279 4.13825 2.717901 6.208399 3.900843-9.105379 112.749924-5.676279 154.430208 36.184107 202.084555 81.649602 66.867944 268.832771 64.503083 351.547635 3.900843C737.255789 731.777775 741.156632 672.1814449999999 723.833081 580.1268660000001L723.833081 580.1268660000001zM552.375058 254.061602l1.181919-25.837458-15.284101-25.245987 21.314445-140.123364 87.443561 187.893344 133.116787 4.551666c68.731384-65.036225 112.837928-218.22414 101.988836-318.142827-247.285013 0-494.598678 0-741.912343 0 1.832741 87.74032 17.97335 237.617839 105.35756 313.828568l120.257921-1.122567L478.470861 64.037734l21.166065 138.940422-15.312754 25.245987 1.182942 25.837458C514.653945 255.65693699999997 523.227204 255.65693699999997 552.375058 254.061602L552.375058 254.061602zM651.96731 620.1534879999999c-52.884464-10.346649-131.638109-19.391652-193.894012 15.609513-23.945365 13.477966-59.005882-14.131859-87.679945-11.295254-8.898671-17.618263-15.550161-36.893258-19.392676-57.289798l-3.192715-16.910135-17.028838 1.655709c-3.133364 0.297782-6.443759-0.116657-9.872858-1.242294-1.537006-0.471744-3.074012-1.122567-4.612041-1.830695 0.444115-18.7439 3.075035-34.293037 7.92346-45.940308 4.256954-10.227945 10.228969-16.910135 17.97335-19.333324l9.93221-3.076058 2.719948-9.991562c8.336876-30.922267 17.677615-60.069097 30.803563-83.778078 12.17939-22.053272 27.788903-39.551808 49.369408-49.485041 9.045003-4.140297 37.956474-6.504134 68.168566-6.975878 32.104185-0.472767 64.149019 1.24127 74.731028 5.142114 23.768333 8.810666 40.913828 25.77913 54.215786 48.010457 14.307867 23.944342 24.477484 54.275137 33.404808 87.562265l2.541893 9.515724 9.461489 3.312442c7.478322 2.661619 13.301957 9.461489 17.440208 19.805068 4.670369 11.531638 7.213285 26.843368 7.656377 45.232181-1.388627 0.649799-2.807952 1.24127-4.167926 1.655709-3.310396 1.122567-6.562463 1.653663-9.637498 1.475608l-16.554024-1.064238-3.075035 16.317641C665.714406 585.981201 659.801742 603.777519 651.96731 620.1534879999999z"  horiz-adv-x="1024" />

    
    <glyph glyph-name="jiang" unicode="&#58932;" d="M92.75350454 506.40654196l709.69626151 0L802.44976605 440.69392499 92.75350454 440.69392499l0 65.71261697zM763.02803699 590.97365185L964 472.94249886l-200.97196301-121.22118402 0 239.25233701z"  horiz-adv-x="1024" />

    
    <glyph glyph-name="wancheng1" unicode="&#58925;" d="M712.667 816h-576c-30 0-66-24-66-60v-636c0-30 30-60 66-60h498c-24 18-36 42-48 66s-18 48-18 78 6 54 18 84 30 54 42 72c24 18 42 36 72 48s54 18 84 18V756c-6 36-30 60-72 60z m-480-150h168c12 0 30-18 30-30s-18-36-36-36h-162c-18 0-36 18-36 30s18 36 36 36z m228-414h-228c-18 0-36 18-36 30 0 18 18 30 36 30h234c18 0 36-18 36-30-6-12-24-30-42-30z m162 180h-390c-18 0-36 12-36 30s18 30 36 30h390c18 0 36-18 36-30-6-24-18-30-36-30zM802.667 342c-90 0-168-72-168-168s72-168 168-168 168 78 168 174c6 90-66 162-168 162z m108-150l-114-108c-6-6-12-6-18-6s-12 0-18 6l-60 60c-12 12-12 30 0 36 12 12 30 12 36 0l48-48 96 90c12 12 30 12 36 0 6 0 6-18-6-30z"  horiz-adv-x="1024" />

    
    <glyph glyph-name="wendang" unicode="&#59066;" d="M936.781856 664.809111a285.820849 285.820849 0 0 1-201.712872 82.791505h-0.731374c-36.714961 0-72.552273-6.874913-106.56115-20.33219a281.798294 281.798294 0 0 1-94.34721-61.581667L267.428629 402.611633c-30.717696-30.425147-47.539292-70.943251-47.466155-114.313712a160.170844 160.170844 0 0 1 48.051254-114.240575c30.790834-30.571421 71.674624-47.31988 115.410772-47.466155h0.29255c43.589874 0 84.32739 16.675321 114.971948 46.807918l233.600766 230.894683a39.859868 39.859868 0 0 1 0 57.120288 40.956928 40.956928 0 0 1-57.632249 0L441.056749 230.592534a80.963071 80.963071 0 0 0-57.485974-23.330821h-0.146275a82.498955 82.498955 0 0 0-58.071073 23.769645 80.304834 80.304834 0 0 0-23.989058 57.412837 78.622675 78.622675 0 0 0 23.550234 56.900876l266.220033 263.148263a202.151696 202.151696 0 0 0 143.276112 58.290486h0.511961c54.633617-0.073137 105.976052-21.1367 144.44631-59.094997 38.39712-38.031433 59.680095-88.642495 59.82637-142.617875a197.617179 197.617179 0 0 0-58.875584-142.032776l-282.383393-279.38476a300.667736 300.667736 0 0 0-212.317791-86.155824H384.740973a303.154406 303.154406 0 0 0-213.561126 87.545434 295.25557 295.25557 0 0 0-88.49622 211.074455 292.330075 292.330075 0 0 0 87.326022 210.343081L534.599448 826.881527a39.859868 39.859868 0 0 1 0 57.120287A40.956928 40.956928 0 0 1 476.894062 884.221226L112.3774 523.653983a372.708047 372.708047 0 0 1-111.168805-267.682781c0.073137-49.294589 9.507858-97.272705 28.304163-142.617875a382.06963 382.06963 0 0 1 210.855043-208.587784c45.710857-18.430618 94.274072-27.792201 144.226897-28.011614h1.023923a383.971202 383.971202 0 0 1 269.65749 109.92547l282.383393 279.311623a279.750447 279.750447 0 0 1 82.864642 199.51875c-0.365687 75.40463-29.986322 146.274744-83.74229 199.445613z"  horiz-adv-x="1024" />

    
    <glyph glyph-name="shenhezhong" unicode="&#58976;" d="M818.179402 259.827243c64.637874 0 122.471761-27.215947 159.893688-74.843854v78.245847c-3.401993 37.421927-37.421927 68.039867-74.843854 68.039867h-176.903655c-47.627907 0-85.049834 3.401993-88.451827 51.0299-10.20598 129.275748 129.275748 119.069767 129.275748 275.561462 0 129.275748-105.461794 238.139535-265.355482 238.139535-159.893688-6.803987-265.355482-115.667774-265.355482-248.345515 0-156.491694 136.079734-146.285714 129.275748-275.561462-3.401993-47.627907-44.225914-51.0299-88.451828-51.0299H100.358804c-37.421927 0-71.44186-34.019934-71.44186-71.441861v-289.169435c0-13.607973 10.20598-23.813953 23.813953-23.813953h581.740864c-17.009967 30.61794-27.215947 68.039867-27.215947 105.461794 0 122.471761 91.853821 217.727575 210.923588 217.727575zM818.179402 225.807309c-98.657807 0-176.903654-78.245847-176.903654-176.903655 0-98.657807 78.245847-176.903654 176.903654-176.903654 98.657807 0 176.903654 78.245847 176.903654 176.903654 0 98.657807-78.245847 176.903654-176.903654 176.903655z m88.451827-261.953488c-6.803987-10.20598-20.41196-17.009967-34.019933-10.20598l-68.039867 40.82392c-10.20598 3.401993-13.607973 13.607973-13.607974 20.41196v112.265781c0 13.607973 10.20598 23.813953 23.813954 23.813953 13.607973 0 23.813953-10.20598 23.813953-23.813953v-98.657808l57.833887-34.019933c10.20598-3.401993 13.607973-17.009967 10.20598-30.61794z"  horiz-adv-x="1024" />

    
    <glyph glyph-name="wendang1" unicode="&#59127;" d="M514.688 832l-340.48-340.48a326.4 326.4 0 1 1 461.632-461.632l238.528 238.528A247.296 247.296 0 0 1 524.608 618.24L299.52 393.088a152.704 152.704 0 1 1 216-216l235.968 235.968-54.272 54.336-235.968-235.968a75.904 75.904 0 0 0-107.392 107.328L578.944 563.84a170.496 170.496 0 1 0 241.152-241.088l-238.528-238.528A249.6 249.6 0 0 0 228.48 437.12l340.48 340.48-54.336 54.272z"  horiz-adv-x="1024" />

    
    <glyph glyph-name="shangchuan1" unicode="&#59122;" d="M188.321839 500.559448c0 80.036782 55.060598 150.351448 128.612046 171.172782C357.658483 774.885517 458.493057 848.91954 576.46492 848.91954 695.378391 848.91954 793.446989 774.885517 834.148046 671.73223c75.870161-21.280368 128.612046-90.676966 128.612046-171.172782 0-99.010207-80.036782-179.529563-181.342161-179.529563-18.973425 0-36.087172 17.113747-36.087172 36.075402 0 21.751172 17.113747 36.087172 36.087172 36.087173 61.063356 0 109.662161 47.645425 109.662161 107.331678 0 31.920552-14.37131 61.534161-37.935081 80.495816l-6.473563 6.049839c-1.859678 2.318713-4.625655 4.154851-8.321471 6.473563-1.859678 2.318713-6.049839 2.318713-8.321471 4.166621h-2.306943c-1.859678 2.318713-4.166621 2.318713-6.049839 4.166621h-2.318713c-1.859678 0-4.166621 2.318713-6.473563 2.318712-1.859678 0-4.166621 0-4.16662 1.847908h-6.049839c-2.318713 0-4.166621 0-6.473564 2.306943h-17.090207c-1.847908 6.944368-4.166621 12.029057-4.16662 18.973425-1.847908 0-1.847908 2.306943-1.847908 4.154851-2.306943 4.166621-2.306943 8.321471-4.154851 12.499862 0 2.306943-2.318713 2.306943-2.318713 4.613885-1.847908 4.166621-4.166621 8.321471-6.473563 12.488092v4.166621c-1.859678 4.154851-6.049839 8.321471-8.309701 12.499862-35.616368 59.238989-101.34069 99.457471-175.374713 99.457471-75.858391 0-141.547402-40.218483-177.16377-99.457471l-6.049839-12.499862c0-1.388874-0.941609-1.388874-1.388873-2.777748l-0.929839-1.388873-6.473564-12.476322v-4.637425l-6.002758-12.499862v-4.143081c-2.330483-6.944368-4.637425-12.029057-4.637426-18.961655h-18.949885c-1.836138-2.318713-4.154851-2.318713-6.002758-2.318713h-4.166621c-1.847908-1.388874-2.765977-1.847908-3.236782-1.847908a0.859218 0.859218 0 0 0-1.388873 0c-1.847908 0-4.166621-2.318713-6.049839-2.318712h-4.154851c-2.318713-1.847908-4.166621-1.847908-6.473563-4.154851h-2.318713c-1.847908-1.847908-4.166621-1.847908-6.049839-4.166621h-2.318712c-1.836138-2.318713-4.14308-4.166621-6.473564-6.473563-4.154851-1.847908-6.002759-4.166621-8.309701-6.049839-23.58731-18.973425-35.616368-48.575264-35.616368-80.507586 0-59.674483 48.575264-107.319908 107.319909-107.319908 21.751172 0 37.946851-14.35954 37.94685-36.087173 0-18.973425-16.195678-36.075402-37.94685-36.075402C270.677333 321.029885 188.321839 401.537471 188.321839 500.559448z m242.888092-120.255264c0 10.651954 4.154851 18.514391 8.309701 25.446988l109.662161 120.231725c6.944368 6.944368 16.631172 10.640184 27.306667 10.640183 10.651954 0 18.949885-3.707586 27.742161-10.640183l107.331678-120.243495c6.838437-6.697195 10.687264-15.877885 10.640184-25.446988 0-18.961655-16.195678-35.628138-37.935081-35.628138-10.640184 0-18.514391 5.555494-25.446988 12.488092l-46.256552 50.434942v-181.365701c0-21.739402-16.195678-35.628138-36.087172-35.628138-20.821333 0-35.628138 13.888736-35.628138 35.628138V407.56377l-46.233012-50.423172c-6.932598-6.944368-17.113747-12.488092-27.742161-12.488092-19.008736 0-35.663448 16.654713-35.663448 35.616368v0.03531z"  horiz-adv-x="1141" />

    
    <glyph glyph-name="shenhezhong1" unicode="&#58951;" d="M511.996723 895.993446a511.996723 511.996723 0 1 1 511.996723-511.996723A509.41626 509.41626 0 0 1 511.996723 895.993446z m-49.274564-200.313598a59.862657 59.862657 0 0 0 46.714581 22.404977A57.466512 57.466512 0 0 0 565.121503 691.194757a82.677231 82.677231 0 0 0 13.434794-55.049888c0-4.485091-3.19486-34.570019-4.485091-42.884845l-17.919885-227.203666a138.321035 138.321035 0 0 0-13.434794-62.074483 35.471133 35.471133 0 0 0-35.839771-22.404976 33.689384 33.689384 0 0 0-31.354679 22.404976 157.469712 157.469712 0 0 0-13.434794 62.074483l-12.165043 222.718575a266.094937 266.094937 0 0 0-4.485091 49.274564 92.712367 92.712367 0 0 0 17.28501 57.630351z m98.549129-627.830861a64.183909 64.183909 0 0 0-44.789473-17.919886 67.378769 67.378769 0 0 0-49.274565 17.919886 73.727528 73.727528 0 0 0-22.404977 53.12478 67.378769 67.378769 0 0 0 17.919886 49.274564 65.412701 65.412701 0 0 0 98.549129 0 67.378769 67.378769 0 0 0 17.919885-49.274564 76.328471 76.328471 0 0 0-17.919885-53.12478z"  horiz-adv-x="1024" />

    
    <glyph glyph-name="weixin1" unicode="&#58931;" d="M712.142848 544.265216c5.1968 0 10.29632-0.09728 15.393792-0.340992C700.572672 690.732032 548.92544 803.131392 365.893632 803.131392c-202.099712 0-365.893632-137.005056-365.893632-306.019328 0-99.086336 56.297472-187.199488 143.623168-243.105792 1.128448-0.707584 3.355648-2.105344 3.355648-2.105344L111.613952 141.142016l132.277248 67.37408c0 0 4.13696-1.196032 6.222848-1.78688 36.371456-10.125312 75.316224-15.613952 115.780608-15.613952 8.257536 0 16.443392 0.31744 24.58624 0.761856-7.501824 23.257088-11.619328 47.745024-11.619328 73.010176C378.860544 419.178496 528.119808 544.265216 712.142848 544.265216L712.142848 544.265216zM493.217792 652.255232c28.381184 0 51.346432-22.254592 51.346432-49.757184 0-27.449344-22.965248-49.747968-51.346432-49.747968-28.403712 0-51.36896 22.298624-51.36896 49.747968C441.849856 630.00064 464.81408 652.255232 493.217792 652.255232L493.217792 652.255232zM238.568448 552.75008c-28.382208 0-51.369984 22.298624-51.369984 49.747968 0 27.501568 22.987776 49.757184 51.369984 49.757184 28.409856 0 51.423232-22.254592 51.423232-49.757184C289.99168 575.049728 266.978304 552.75008 238.568448 552.75008L238.568448 552.75008zM238.568448 552.75008M405.771264 263.074816c0-142.787584 138.427392-258.542592 309.16608-258.542592 34.167808 0 67.05664 4.65408 97.792 13.231104 1.763328 0.468992 5.244928 1.522688 5.244928 1.522688l111.711232-56.961024-29.8496 93.577216c0 0 1.913856 1.201152 2.8416 1.78688 73.723904 47.233024 121.322496 121.64096 121.322496 205.385728 0 142.765056-138.37824 258.495488-309.062656 258.495488C544.197632 521.570304 405.771264 405.839872 405.771264 263.074816L405.771264 263.074816zM779.05408 352.119808c0 23.184384 19.408896 41.97888 43.378688 41.97888 24.019968 0 43.43296-18.794496 43.43296-41.97888 0-23.237632-19.412992-42.0608-43.43296-42.0608C798.462976 310.059008 779.05408 328.882176 779.05408 352.119808L779.05408 352.119808zM563.923968 352.119808c0 23.184384 19.437568 41.97888 43.409408 41.97888 23.995392 0 43.42784-18.794496 43.42784-41.97888 0-23.237632-19.433472-42.0608-43.42784-42.0608C583.361536 310.059008 563.923968 328.882176 563.923968 352.119808L563.923968 352.119808zM563.923968 352.119808"  horiz-adv-x="1025" />

    
    <glyph glyph-name="tuozhuai" unicode="&#58910;" d="M995.84 385.28L803.84 609.28v-192h-256v256H483.84v-256h-256V609.28L35.84 385.28l192-224V353.28h256v-256H291.84l224-192L739.84 97.28H547.84v256h256v-192l192 224zM515.84 865.28L291.84 673.28h448L515.84 865.28z"  horiz-adv-x="1024" />

    
    <glyph glyph-name="unie61d" unicode="&#58911;" d="M-21.034 913.584v0 0zM728.857 418.125q-15.523 3.111-20.157 9.301t-1.555 11.386l3.111 5.164q1.026 1.026 2.085 3.111t4.138 8.804 4.667 13.438 2.581 16.549-0.529 18.635-6.223 19.132-12.942 18.635q-14.497 14.497-37.766 18.635t-46.538 0.529-43.955-9.301-34.125-10.857l-13.438-6.223q-10.359-3.111-17.079-4.138t-10.359 0.529-5.693 3.111-1.555 7.249 1.026 9.83 2.581 12.942 3.111 13.968q0 12.412-1.555 23.268t-6.719 24.294-14.994 21.713-24.825 13.438-38.793 3.111-53.786-12.412q-36.21-12.412-73.446-36.707t-64.642-50.674-50.178-51.204-35.184-40.348l-11.386-16.549q-34.125-44.485-50.674-88.97t-15.523-67.225v-21.713q6.223-49.648 30.517-88.97t57.923-63.616 79.139-41.374 87.414-24.825 88.441-10.857q76.558-6.223 158.775 11.883t153.083 62.59 99.826 106.546q17.575 36.21 18.106 68.284t-10.857 52.23-29.491 35.681-34.125 22.772-28.432 9.301zM413.39 96.436q-111.709-5.164-189.79 43.459t-78.080 123.095q0 73.446 77.584 126.703t190.319 58.453 190.319-37.236 77.584-115.846q0-74.473-79.139-133.952t-188.764-64.642zM383.403 382.974q-29.987-3.111-53.786-13.968t-37.236-24.825-22.772-29.987-12.942-31.543-4.667-28.432-1.026-20.157l1.026-8.275v-4.138q0-3.111 2.085-12.412t5.693-17.079 11.883-17.079 19.661-15.523q68.284-33.099 127.232-20.157t95.159 59.478q14.497 17.575 19.132 43.459t-2.085 52.23-23.268 48.093-49.119 33.629-75.003 6.719zM346.166 187.458q-6.223-1.026-11.883-0.529t-10.359 2.085-9.301 3.607-7.745 5.693-5.693 7.249-4.138 8.275-1.555 9.83q0 11.386 6.223 22.242t17.079 18.635 24.294 8.804q9.301 1.026 18.106-0.529t14.994-5.164 10.857-8.275 6.719-10.857 2.085-13.438q0-11.386-6.719-21.713t-18.106-17.575-24.825-8.275zM434.077 261.931q-7.249-5.164-14.994-4.667t-10.857 6.719l-2.085 4.138q-1.026 2.085-1.026 4.138v4.138q0 3.111 1.026 5.164l2.085 4.138q1.026 2.085 3.111 3.111l3.111 4.138q8.275 6.223 16.020 5.164t10.857-8.275q3.111-4.138 2.581-9.301t-3.111-9.83-6.719-8.804zM801.277 478.133q6.223 0 11.386 3.111t8.275 7.745 4.138 9.83q1.026 1.026 1.026 3.111 12.412 117.932-82.748 134.481-27.936 5.164-51.733 1.026-7.249 0-12.412-3.607t-8.804-9.301-3.607-11.883q0-10.359 7.249-17.575t17.575-7.249q80.695 18.635 86.885-51.733 2.085-17.575-2.085-33.099 0-10.359 7.249-17.575t17.575-7.249zM783.702 769.802q-45.511 10.359-122.069-4.138-1.026 0-2.085-1.026l-1.026-2.085-1.026-1.026q-11.386-3.111-18.635-12.942t-7.249-21.216q0-15.523 10.359-25.851t24.825-10.359h3.111q1.026 0 4.667 1.026t7.745 1.555 8.804 2.085 8.275 3.111 13.968 1.555 25.354-1.555 33.099-7.745 36.21-15.523 36.21-25.851 31.543-38.262q26.91-61.035 10.359-117.932 0-1.026-0.529-2.085t-1.555-5.164-2.085-7.745-2.085-9.301-1.026-9.83q0-9.301 5.164-15.523t12.942-8.804 18.106-2.581q28.962 0 34.125 35.184 12.412 40.348 13.968 77.055t-5.164 64.642-20.157 52.23-31.046 41.374-39.322 31.046-41.903 22.242-41.903 13.438z"  horiz-adv-x="1024" />

    
    <glyph glyph-name="xinwen" unicode="&#58914;" d="M662 833.1c-3.9 0-420 0.9-420 0.9-66.3 0-120-53.7-120-120v-660c0-66.3 53.7-120 120-120h540c66.3 0 120 53.7 120 120V594L662 833.1zM302 654h240v-180H302V654z m390-540H332c-16.6 0-30 13.4-30 30s13.4 30 30 30h360c16.6 0 30-13.4 30-30s-13.4-30-30-30z m0 180H332c-16.6 0-30 13.4-30 30s13.4 30 30 30h360c16.6 0 30-13.4 30-30s-13.4-30-30-30z m30 300c-33.1 0-60 26.9-60 60V774l180-180H722z"  horiz-adv-x="1024" />

    
    <glyph glyph-name="xinwen1" unicode="&#58916;" d="M788.038484 809.521321h-554.631191C189.377361 809.521321 153.618244 773.762205 153.618244 729.732272v-710.31714c0-24.2043 10.21689-44.029932 27.974819-54.125193 17.757928-10.095261 40.016154-8.878964 60.814824 3.64889l241.43485 143.522984c13.136002 7.784297 38.799857 7.784297 51.935859 0.121629L778.794631-31.182801c11.433187-6.81126 23.474522-10.21689 34.786079-10.21689 9.243853 0 18.122817 2.189334 26.028745 6.81126 17.757928 10.095261 27.974819 29.920893 27.974819 54.125193V729.732272c0.243259 44.029932-35.515857 79.789049-79.54579 79.789049zM681.490913 291.500653H338.252049c-17.27141 0-31.13719 13.86578-31.13719 31.13719 0 17.27141 13.86578 31.13719 31.13719 31.13719H681.490913c17.27141 0 31.13719-13.86578 31.13719-31.13719 0-17.27141-13.86578-31.13719-31.13719-31.13719z m0 132.211427H338.252049c-17.27141 0-31.13719 13.86578-31.13719 31.13719s13.86578 31.13719 31.13719 31.137189H681.490913c17.27141 0 31.13719-13.86578 31.13719-31.137189s-13.86578-31.13719-31.13719-31.13719z m0 132.211426H338.252049c-17.27141 0-31.13719 13.86578-31.13719 31.13719 0 17.27141 13.86578 31.13719 31.13719 31.13719H681.490913c17.27141 0 31.13719-13.86578 31.13719-31.13719 0-17.27141-13.86578-31.13719-31.13719-31.13719z m0 0"  horiz-adv-x="1024" />

    
    <glyph glyph-name="yuanzi" unicode="&#59035;" d="M919.185939 162.177836a108.835 108.835 0 0 1-56.37653-15.45457l-121.24219 108.835a181.75445 181.75445 0 0 1-4.57107 194.59698l94.90412 90.55072A110.14102 110.14102 0 1 1 779.006459 591.205406l-94.46878-90.33305a181.53678 181.53678 0 0 1-148.88628 21.767l-70.74275 124.72491a144.09754 144.09754 0 1 1-64.21265-35.26254l70.08974-123.85423a184.36649 184.36649 0 0 1-53.32915-73.57246L220.0299 438.836406a110.57636 110.57636 0 1 1-14.36622-72.26644l199.168049-25.68506a180.88377 180.88377 0 0 1 32.43283-97.73383l-108.834999-104.26393a144.53288 144.53288 0 1 1 50.281769-53.76449l112.75306 107.52898a181.53678 181.53678 0 0 1 200.03873 6.74777l124.0719-108.835A110.14102 110.14102 0 1 1 958.366539 155.865406a108.835 108.835 0 0 1-39.1806 6.31243z"  horiz-adv-x="1030" />

    
    <glyph glyph-name="tuozhuai1" unicode="&#58947;" d="M153.6 742.4h716.8v-102.4H153.6V742.4z m0-307.2h716.8v-102.4H153.6V435.2z m0-307.2h716.8v-102.4H153.6v102.4z"  horiz-adv-x="1024" />

    
    <glyph glyph-name="zhishu-kedanjia" unicode="&#59132;" d="M204.8 540.8a307.2 176 0 1 1 614.4 0 307.2 176 0 1 1-614.4 0ZM512 310.4c-140.8 0-259.2 54.4-294.4 128-6.4-16-12.8-32-12.8-48 0-96 137.6-176 307.2-176s307.2 80 307.2 176c0 16-3.2 32-12.8 48-35.2-73.6-153.6-128-294.4-128zM512 147.2c-140.8 0-259.2 54.4-294.4 128-6.4-16-12.8-32-12.8-48 0-96 137.6-176 307.2-176s307.2 80 307.2 176c0 16-3.2 32-12.8 48-35.2-73.6-153.6-128-294.4-128z"  horiz-adv-x="1024" />

    
    <glyph glyph-name="zhishu-pingjunxiaoliang" unicode="&#59133;" d="M220.8 601.6h528v-54.4H220.8zM275.2 681.6h419.2v-54.4H275.2zM163.2 521.6V64H800V521.6H163.2z m483.2-256h-137.6V128h-54.4v137.6H316.8V320h137.6v137.6h54.4V320h137.6v-54.4z"  horiz-adv-x="1024" />

    
    <glyph glyph-name="zhishu-yuguxiaoshouzhishu" unicode="&#59134;" d="M198.4 620.8v-454.4H832V620.8H198.4z m380.8-313.6L470.4 416 320 265.6l-38.4 38.4 192 192 108.8-108.8 134.4 137.6 38.4-38.4-176-179.2zM288 92.8h448v-54.4H288z"  horiz-adv-x="1024" />

    
    <glyph glyph-name="tuozhuai2" unicode="&#58919;" d="M219.429 803.986a80.457 80.457 0 1 1 160.914 0 80.457 80.457 0 1 1-160.914 0z m0-429.129a80.457 80.457 0 1 1 160.914 0 80.457 80.457 0 1 1-160.914 0z m0-415.67a80.457 80.457 0 1 1 160.914 0 80.457 80.457 0 1 1-160.914 0z m402.285 838.07a80.457 80.457 0 1 1 160.915 0 80.457 80.457 0 1 1-160.915 0z m0-429.129a80.457 80.457 0 1 1 160.915 0 80.457 80.457 0 1 1-160.915 0z m0-408.942a80.457 80.457 0 1 1 160.915 0 80.457 80.457 0 1 1-160.915 0z"  horiz-adv-x="1024" />

    
    <glyph glyph-name="bars" unicode="&#59797;" d="M96 632h832c17.674 0 32 14.326 32 32V744c0 17.674-14.326 32-32 32H96C78.326 776 64 761.674 64 744v-80c0-17.674 14.326-32 32-32z m0-320h832c17.674 0 32 14.326 32 32v80c0 17.674-14.326 32-32 32H96c-17.674 0-32-14.326-32-32v-80c0-17.674 14.326-32 32-32z m0-320h832c17.674 0 32 14.326 32 32v80c0 17.674-14.326 32-32 32H96c-17.674 0-32-14.326-32-32v-80c0-17.674 14.326-32 32-32z"  horiz-adv-x="1024" />

    
    <glyph glyph-name="fuhewaijian" unicode="&#59008;" d="M633.856 798.446933H97.4848v-536.302933H341.333333v-292.590933h536.3712V505.924267H633.856V798.378667z m112.162133-699.733333H550.980267l80.2816 80.349867L471.927467 338.261333l34.474666 34.474667 159.3344-159.266133 80.2816 80.2816v-195.106134zM386.048 720.554667L300.373333 634.811733l169.984-169.984-36.795733-36.727466-169.984 169.984L177.9712 512.341333V720.4864h208.0768z m345.429333-126.225067V896H0v-722.261333h243.780267V-128h731.477333V594.261333h-243.848533z m194.9696-673.518933H292.590933V213.333333H48.7424V847.2576H682.666667V554.666667h243.712v-633.924267z"  horiz-adv-x="1024" />

    
    <glyph glyph-name="tuozhuai3" unicode="&#59823;" d="M960.1 383.9L768.2 576v-127.7H576.1V640.2h128.8L513.2 832 321.1 640.2h127v-191.9H256V576L64.2 383.9 256 192.1V320.2h192.1v-192.8h-127l192.1-191.9 191.7 191.9H576.1V320.2h192.1v-128.1z"  horiz-adv-x="1024" />

    
    <glyph glyph-name="neirong" unicode="&#59141;" d="M438.8352 479.744c0-12.6464-10.24-22.8864-22.8352-22.8864H22.8352A22.9376 22.9376 0 0 0 0 479.6928V873.0112C0 885.6064 10.24 895.8976 22.8352 895.8976h393.1648c12.5952 0 22.8352-10.2912 22.8352-22.8864V479.744z m0-584.8576c0-12.5952-10.24-22.8864-22.8352-22.8864H22.8352A22.9376 22.9376 0 0 0 0-105.1136v393.3184c0 12.544 10.24 22.8352 22.8352 22.8352h393.1648c12.5952 0 22.8352-10.24 22.8352-22.8352v-393.3184zM1001.1648 603.2896h-466.3296a22.8352 22.8352 0 0 1-22.8352-22.8352v-100.7616c0-12.5952 10.1888-22.8352 22.8352-22.8352h466.3296A22.8352 22.8352 0 0 1 1024 479.6928V580.4544a22.784 22.784 0 0 1-22.8352 22.8352z m0 292.7104h-466.3296A22.8352 22.8352 0 0 1 512 873.1136v-100.7104c0-12.5952 10.1888-22.8864 22.8352-22.8864h466.3296A22.8352 22.8352 0 0 1 1024 772.4032V873.1136A22.784 22.784 0 0 1 1001.1648 896z m0-876.9536h-466.3296a22.8352 22.8352 0 0 1-22.8352-22.8864v-100.7104c0-12.5952 10.1888-22.8864 22.8352-22.8864h466.3296a22.8352 22.8352 0 0 1 22.8352 22.8864v100.7104a22.784 22.784 0 0 1-22.8352 22.8864z m0 292.7104h-466.3296a22.8352 22.8352 0 0 1-22.8352-22.8864v-100.7104c0-12.5952 10.1888-22.8864 22.8352-22.8864h466.3296a22.8352 22.8352 0 0 1 22.8352 22.8864v100.7104a22.784 22.784 0 0 1-22.8352 22.8864z"  horiz-adv-x="1024" />

    
    <glyph glyph-name="weixin" unicode="&#59034;" d="M676.77349854 529.34664917c4.2805481 0 8.47869873-0.07992554 12.68014526-0.28179932C667.24258423 650.00289917 542.31896973 742.59375 391.53985596 742.59375 225.05578614 742.59375 90.125 629.73147583 90.125 490.50119018c0-81.6262207 46.37658691-154.21096802 118.31204224-200.26290893l2.76608276-1.73693847-29.13244629-91.23870851 108.96487427 55.50292969s3.41125489-0.98876953 5.12677002-1.47491454c29.96136474-8.33862305 62.04446411-12.86224365 95.37753296-12.86224366 6.80355835 0 13.54779052 0.26367188 20.25082397 0.6262207-6.17733765 19.16235352-9.56964112 39.33242797-9.56964111 60.14767456 0 127.09725952 122.95761109 230.14434815 274.55245972 230.14434815zM496.42687988 618.3054199200001c23.38027954 0 42.2979126-18.33343506 42.2979126-40.98779297 0-22.61151123-18.91680908-40.98449708-42.2979126-40.98449707-23.40005493 0-42.31686401 18.37298584-42.31686401 40.98449707 0 22.65518188 18.91680908 40.98779297 42.31686401 40.98779297zM286.65118408 536.33312988c-23.37780761 0-42.31604004 18.37298584-42.31604004 40.98449707 0 22.65518188 18.93823242 40.98779297 42.31604004 40.98779297 23.40170288 0 42.36053467-18.33343506 42.36053467-40.98779297 0-22.61151123-18.95883179-40.98449708-42.36053467-40.98449706zM424.39007568 297.70761109c0-117.62484742 114.03231812-212.98260498 254.68478394-212.98260499 28.14450073 0 55.24090576 3.83477783 80.55834961 10.90118408 1.45349122 0.38479614 4.32092285 1.25244141 4.32092285 1.25244141l92.02478027-46.9220581-24.58987427 77.08694458s1.57543945 0.98876953 2.34255982 1.47244263c60.73104859 38.90725708 99.93988037 100.20272827 99.93988038 169.19165039 0 117.60671997-113.99276734 212.94387817-254.59661866 212.94387816-140.65246583 0-254.68478393-95.3371582-254.68478394-212.94387816z m307.5015564 73.3510437c0 19.09973145 15.99005127 34.58468628 35.73577881 34.58468628 19.78610229 0 35.77697754-15.48495484 35.77697754-34.58468628 0-19.1401062-15.99169922-34.64648438-35.77697754-34.64648438-19.74572753 0-35.73577881 15.50637818-35.73577881 34.64648438z m-177.21716309 0c0 19.09973145 16.00982666 34.58468628 35.75637818 34.58468628 19.76715088 0 35.77697754-15.48495484 35.77697754-34.58468628 0-19.1401062-16.00982666-34.64648438-35.77697754-34.64648438-19.74572753 0-35.75637818 15.50637818-35.75637818 34.64648438z"  horiz-adv-x="1024" />

    
    <glyph glyph-name="weibo" unicode="&#58912;" d="M713.007 311.72c-11.263 3.397-18.982 5.71-13.086 20.622 12.769 32.36 14.104 60.291 0.237 80.199-25.962 37.37-97.026 35.348-178.468 1.018 0 0.04-25.572-11.275-19.042 9.161 12.531 40.556 10.641 74.528-8.856 94.145-44.19 44.521-161.7-1.679-262.461-103.134C155.872 337.722 112.05 257.179 112.05 187.528c0-133.232 169.651-214.238 335.621-214.238 217.576 0 362.309 127.298 362.309 228.383C809.98 262.73 758.903 297.391 713.007 311.72L713.007 311.72zM448.114 21.05c-132.439-13.166-246.756 47.126-255.362 134.688-8.599 87.549 91.825 169.202 224.245 182.394 132.452 13.18 246.782-47.098 255.362-134.634C680.938 115.896 580.58 34.243 448.114 21.05L448.114 21.05zM857.489 555.529c-52.545 58.665-130.048 81.032-201.574 65.711l-0.04 0c-16.55-3.569-27.099-19.96-23.556-36.603 3.529-16.656 19.802-27.297 36.364-23.741 50.88 10.879 105.963-5.036 143.307-46.702 37.33-41.679 47.456-98.521 31.474-148.342l0.014-0.013c-5.209-16.233 3.608-33.589 19.749-38.837 16.061-5.235 33.338 3.622 38.56 19.815l0.014 0.119C924.219 417.035 910.047 496.916 857.489 555.529M776.801 482.204c-25.564 28.566-63.331 39.419-98.189 31.963-14.25-3.067-23.317-17.185-20.277-31.54 3.054-14.303 17.065-23.49 31.275-20.371l0-0.04c17.039 3.635 35.52-1.652 48.012-15.598 12.518-13.973 15.889-33.008 10.522-49.716l0.026 0c-4.469-13.933 3.105-28.923 16.959-33.443 13.867-4.468 28.725 3.146 33.192 17.118C809.28 414.721 802.434 453.638 776.801 482.204M461.346 270.741c-63.021 16.511-134.244-15.122-161.621-71.038-27.878-57.039-0.925-120.345 62.75-141.046 65.949-21.414 143.689 11.408 170.729 72.969C559.854 191.799 526.568 253.769 461.346 270.741L461.346 270.741zM413.229 125.096c-12.816-20.582-40.251-29.609-60.906-20.105-20.364 9.332-26.372 33.232-13.563 53.312 12.657 19.987 39.168 28.884 59.67 20.226C419.178 169.617 425.807 145.876 413.229 125.096L413.229 125.096zM455.431 179.637c-4.64-7.971-14.878-11.817-22.901-8.486-7.885 3.265-10.357 12.188-5.876 20.027 4.613 7.798 14.455 11.593 22.32 8.445C456.971 196.689 459.846 187.661 455.431 179.637L455.431 179.637zM455.431 179.637"  horiz-adv-x="1024" />

    
    <glyph glyph-name="daVtuijian" unicode="&#58943;" d="M698.5 332.7c-31.9 20.3-66.9 36.3-104.1 47.2 71.7 40.7 120.1 117.7 120.1 206.1 0 130.8-106 236.8-236.8 236.8S240.9 716.8 240.9 586c0-88.3 48.4-165.4 120.1-206.1-145.6-42.8-257.1-163.5-284.9-313-7-38 23-72.8 62.1-72.8h442.1c-20.1 34.8-31.7 75.2-31.7 118.4 0.1 100 62.2 185.5 149.9 220.2z m87-54.5c-91.5 0-165.7-74.2-165.7-165.7S694-53.3 785.5-53.3s165.7 74.2 165.7 165.7-74.1 165.8-165.7 165.8z m87-131.2l-69.1-116.6c-4.2-7-11.6-11.3-19.7-11.3s-15.6 4.3-19.7 11.3L694.8 147c-6.5 11-3 25.4 7.9 32 10.9 6.6 25 3 31.6-8l49.3-83.2L833 171c6.5 11 20.7 14.6 31.6 8 10.9-6.7 14.4-21 7.9-32z"  horiz-adv-x="1024" />

    
    <glyph glyph-name="qita" unicode="&#58949;" d="M512.014 814.032C274.526 814.032 82 621.506 82 384.009c0-237.505 192.526-430.042 430.014-430.042C749.482-46.032 942 146.504 942 384.009c0 237.497-192.518 430.023-429.986 430.023zM294.112 330.127c-29.831 0-54.01 24.07-54.01 53.764 0 29.694 24.179 53.763 54.01 53.763 29.821 0 54-24.069 54-53.763s-24.178-53.764-54-53.764z m216.03 0c-29.821 0-54.01 24.07-54.01 53.764 0 29.694 24.188 53.763 54.01 53.763 29.84 0 54.019-24.069 54.019-53.763-0.001-29.694-24.18-53.764-54.019-53.764z m216.038 0c-29.821 0-54 24.07-54 53.764 0 29.694 24.179 53.763 54 53.763 29.822 0 54.02-24.069 54.02-53.763-0.001-29.694-24.198-53.764-54.02-53.764z"  horiz-adv-x="1024" />

    
    <glyph glyph-name="dav" unicode="&#59065;" d="M519.687688 383.487487m-426.410411 0a426.41041 426.41041 0 1 1 852.820821 0 426.41041 426.41041 0 1 1-852.820821 0ZM520.712713 226.146146c7.175175 0 14.35035 4.612613 17.425425 11.275275l61.501502 113.777778c6.15015 10.25025 2.05005 24.088088-7.175176 30.750751-9.225225 6.662663-21.525526 2.05005-27.675675-8.2002l-44.076076-80.976977-44.076076 80.976977c-5.125125 11.275275-18.45045 14.862863-27.675676 8.2002-10.25025-5.637638-13.325325-20.500501-7.175175-30.750751l61.501501-113.777778c3.075075-7.175175 10.25025-11.275275 17.425426-11.275275z m0 318.27027c-22.550551 0-41.001001 17.937938-41.001001 39.975976s18.45045 39.975976 41.001001 39.975976 41.001001-17.937938 41.001001-39.975976-18.45045-39.975976-41.001001-39.975976zM760.568569 465.489489l-59.451452-279.319319c-5.125125-23.063063-26.138138-39.975976-51.763764-39.975976H392.072072c-25.625626 0-46.638639 16.4004-51.763764 39.975976L280.856857 465.489489c-2.05005-0.512513-4.1001-0.512513-6.15015-0.512512-22.550551 0-41.001001 17.937938-41.001001 39.975976s18.45045 39.975976 41.001001 39.975976 41.001001-17.937938 41.001001-39.975976c0-2.05005 0-4.1001-0.512513-6.15015l97.377378-78.926927 93.789789 118.902903c7.175175 8.2002 21.013013 8.2002 28.188189 0L628.852853 419.363363l97.377377 78.926927c-0.512513 2.05005-0.512513 4.1001-0.512512 6.15015 0 22.038038 18.45045 39.975976 41.001001 39.975976s41.001001-17.937938 41.001001-39.975976-18.45045-39.975976-41.001001-39.975976c-2.05005 0.512513-4.1001 0.512513-6.15015 1.025025z"  horiz-adv-x="1025" />

    
    <glyph glyph-name="rili-" unicode="&#58918;" d="M288.4 439.9h111.8v-111.8H288.4zM288.4 272.2h111.8v-111.9H288.4zM456.2 439.9H568v-111.8H456.2zM456.2 272.2H568v-111.9H456.2zM623.9 439.9h111.8v-111.8H623.9zM623.9 272.2h111.8v-111.9H623.9zM847.4 831.3H735.7v-55.9c0-30.8-25.1-55.9-55.9-55.9s-55.9 25-55.9 55.9V831.3H400.1v-55.9c0-30.8-25.1-55.9-55.9-55.9-30.8 0-55.9 25-55.9 55.9V831.3H176.5c-61.7 0-111.8-50-111.8-111.8v-671c0-61.8 50.1-111.8 111.8-111.8h671c61.8 0 111.8 50 111.7 111.8v671c0 61.8-50 111.8-111.8 111.8z m0.1-726.9c0-30.8-25-55.9-55.9-55.9H232.4c-30.8 0-55.9 25-55.9 55.9V495.8c0 30.8 25 55.9 55.9 55.9h559.2c30.8 0 55.9-25 55.9-55.9v-391.4z"  horiz-adv-x="1024" />

    
    <glyph glyph-name="daV" unicode="&#59071;" d="M940.5 432.4l-88 87.9v136c-0.1 37.5-30.5 67.9-68 68h-136l-87.9 88c-26.6 26.5-69.6 26.5-96.2 0l-87.9-88h-136c-37.5-0.1-67.9-30.5-68-68v-136l-88-87.9c-26.5-26.6-26.5-69.6 0-96.2l88-87.9v-136c0.1-37.5 30.5-67.9 68-68h136l87.9-88c26.6-26.5 69.6-26.5 96.2 0l87.9 88h136c37.5 0.1 67.9 30.5 68 68v136l88 87.9c26.5 26.6 26.5 69.6 0 96.2z m-428-286.2L308.4 520.3h102l102-204.1 102 204.1h102L512.5 146.2z m0 0"  horiz-adv-x="1024" />

    
    <glyph glyph-name="jigourenzhengx" unicode="&#58909;" d="M154.069333 678.954667m191.573334 0l273.450666 0q191.573333 0 191.573334-191.573334l0-253.141333q0-191.573333-191.573334-191.573333l-273.450666 0q-191.573333 0-191.573334 191.573333l0 253.141333q0 191.573333 191.573334 191.573334ZM928.298667 749.525333h-43.946667s-102.528 0-190.378667 43.946667a1611.733333 1611.733333 0 0 0-175.786666 87.893333L488.96 896l-14.634667-14.634667s-73.258667-43.946667-175.786666-87.893333c-87.850667-43.946667-190.378667-43.946667-190.378667-43.946667h-43.946667v-424.704c0-219.690667 278.272-439.338667 424.746667-439.338666 161.109333 0 439.381333 219.648 439.381333 439.338666V749.525333zM313.173333 134.442667V544.426667H269.226667v43.946666h161.109333v-190.378666l190.378667 190.421333h146.474666L313.173333 134.4z"  horiz-adv-x="1024" />

    
    <glyph glyph-name="zhuanxiangziliao" unicode="&#58930;" d="M662.181953 578.632839l181.512007 2.886747L605.268732 830.429609l0-194.591907C605.268732 577.985086 662.181953 578.632839 662.181953 578.632839L662.181953 578.632839zM564.679291 832.963315 257.739621 832.963315c-43.772946 0-79.652108-35.81981-79.652108-79.652108l0-737.716788c0-43.771923 35.81981-79.651085 79.652108-79.651085l506.362606 0c43.771923 0 79.652108 35.818787 79.652108 79.651085L843.754335 545.40404C541.585317 545.40404 564.679291 511.058814 564.679291 832.963315L564.679291 832.963315zM537.283338 144.202519 321.778122 144.202519c-17.025769 0-30.92943 13.904685-30.92943 30.930453 0 17.026792 13.903661 30.92943 30.92943 30.92943l215.505215 0c17.026792 0 30.931476-13.902638 30.931476-30.92943C568.213791 158.107203 554.31013 144.202519 537.283338 144.202519L537.283338 144.202519zM700.00335 267.862933l-378.224204 0c-17.025769 0-30.92943 13.903661-30.92943 30.92943 0 17.027815 13.903661 30.989805 30.92943 30.989805l378.283556 0c17.028838 0 30.930453-13.903661 30.930453-30.930453C730.992131 281.825946 717.029118 267.862933 700.00335 267.862933L700.00335 267.862933zM730.992131 429.699832c0-17.025769-13.901615-30.92943-30.930453-30.92943L321.778122 398.770402c-17.025769 0-30.92943 13.903661-30.92943 30.92943 0 17.024745 13.903661 30.987758 30.92943 30.987758l378.283556 0C717.029118 460.68759 730.992131 446.724577 730.992131 429.699832L730.992131 429.699832z"  horiz-adv-x="1024" />

    
    <glyph glyph-name="zhuanxiangfanganpingshen" unicode="&#58980;" d="M178.672 496.42c0 91.938 32.551 170.369 97.21 236.163 64.677 65.772 143.224 98.448 235.242 98.448 92.02 0 170.548-32.676 236.125-98.448 65.528-65.794 98.078-144.225 98.078-236.163 0-12.631-0.426-25.713-1.75-38.346-2.159-2.183-1.728-6.536-1.728-8.711l-5.209-31.373c-2.176 0-1.707-3.052-1.707-5.229-3.501-11.757-6.961-22.213-10.444-31.365v-1.751s-0.445-0.432-1.726-1.733c-4.785-12.63-9.13-23.962-13.896-33.118 0-1.3-0.444-1.75-1.745-1.75-5.66-11.757-12.15-22.646-19.111-33.118-6.918-10.456-14.297-20.893-22.557-31.356 0 0-0.451-0.444-0.858-0.875l-0.874-0.852c-6.935-8.28-15.199-16.132-24.31-24.412 0 0-0.858-0.431-2.606-1.75-4.335-3.032-4.76-5.653-9.538-10.437-2.182 0-5.192-1.325-5.192-3.52l-16.497-13.038-3.483-2.627-2.602-1.75c-10.418-8.262-17.822-17.417-22.58-27.873-4.78-10.48-9.112-17.86-13.88-22.662-4.776-4.802-13.462-6.979-26.038-6.979H387.004c-12.595 0-21.28 2.196-26.04 6.98-4.783 4.8-9.563 12.18-14.77 22.661-5.21 10.457-12.578 19.61-21.69 27.872-1.301 0-2.176 0.45-3.476 1.751l-2.608 2.627-16.498 13.038-5.21 3.52-6.936 6.954-5.207 5.233-24.316 24.412s-0.425 0.408-0.852 0.852l-0.873 0.875c-16.074 20.9-29.95 41.385-41.67 64.473-1.301 0-1.726 0.426-1.726 1.751-4.785 9.155-9.118 20.488-13.896 33.118-1.3 0-1.733 0.45-1.733 1.733v1.75c-3.476 9.154-6.953 19.61-10.41 31.366 0 0-0.452 0.876-0.877 2.627l-0.875 2.608c-2.177 9.154-3.908 19.586-5.21 31.367 0 2.174-1.726 6.534-1.726 8.711-1.284 12.633-1.733 25.715-1.733 38.346z m196.182-390.388h277.768c16.071 0 27.766-11.763 27.766-27.896 0-16.092-11.695-27.873-27.766-27.873H374.854c-16.073 0-27.787 11.782-27.787 27.873 0.001 16.133 11.714 27.896 27.787 27.896z m12.15-111.53h251.723l-102.431-52.285a63.015 63.015 0 0 0-50.357 0l-98.935 52.285z m154.494 669.237c33.446 0 65.123-13.507 94.646-40.956 29.498-27.463 44.244-61.438 44.244-101.968 0-13.932 11.722-27.89 27.775-27.89 16.071 0 27.791 13.958 27.791 27.89 0 60.565-19.53 108.498-59.042 144.648-39.487 36.177-84.615 54.038-135.414 54.038-16.053 0-27.767-11.758-27.767-27.874 0-16.133 11.715-27.888 27.767-27.888z m0 0"  horiz-adv-x="1024" />

    
    <glyph glyph-name="biaoqian2" unicode="&#59013;" d="M290.133333 554.666667c-29.866667 0-51.2 21.333333-51.2 51.2s21.333333 51.2 51.2 51.2S341.333333 635.733333 341.333333 605.866667 320 554.666667 290.133333 554.666667m541.866667-157.866667l-307.2 307.2c-12.8 12.8-29.866667 21.333333-46.933333 21.333333H238.933333C200.533333 725.333333 170.666667 695.466667 170.666667 657.066667v-238.933334c0-17.066667 8.533333-34.133333 21.333333-46.933333l307.2-307.2c12.8-12.8 29.866667-21.333333 46.933333-21.333333 17.066667 0 34.133333 8.533333 46.933334 21.333333l238.933333 238.933333c12.8 12.8 21.333333 29.866667 21.333333 46.933334 0 17.066667-8.533333 34.133333-21.333333 46.933333z"  horiz-adv-x="1024" />

    
    <glyph glyph-name="zhuanxiangxuncha" unicode="&#59510;" d="M502.784 436.224c-17.408 0-34.816 3.072-48.128 10.24L187.392 574.4639999999999c-20.48 6.144-30.72 19.456-30.72 35.84s10.24 29.696 27.648 38.912l271.36 131.072c13.312 6.144 34.816 10.24 51.2 10.24s34.816-3.072 48.128-10.24l267.264-124.928c17.408-10.24 27.648-22.528 27.648-38.912 0-16.384-10.24-29.696-27.648-38.912L550.912 446.464c-10.24-6.144-30.72-10.24-48.128-10.24z m-54.272-458.752c-10.24 0-17.408 3.072-27.648 6.144L184.32 102.39999999999998c-27.648 13.312-51.2 43.008-51.2 65.536V492.544c0 22.528 17.408 38.912 40.96 38.912 7.168 0 17.408-3.072 23.552-6.144l240.64-117.76c27.648-13.312 51.2-43.008 51.2-65.536v-321.536c0-26.624-20.48-43.008-40.96-43.008z m126.976 0c-23.552 0-40.96 16.384-40.96 38.912V337.91999999999996c0 26.624 20.48 52.224 51.2 65.536l240.64 120.832c7.168 3.072 17.408 6.144 23.552 6.144 23.552 0 40.96-16.384 40.96-38.912v-321.536c0-26.624-20.48-52.224-51.2-65.536L599.04-15.360000000000014c-6.144-3.072-13.312-7.168-23.552-7.168z m0 0"  horiz-adv-x="1024" />

    
    <glyph glyph-name="chuyidong" unicode="&#58906;" d="M512 431.734l-174.946 174.986c-6.108 6.108-14.546 9.886-23.867 9.886-18.641 0-33.753-15.112-33.753-33.753 0-9.321 3.778-17.759 9.886-23.867l174.907-174.986-174.986-174.946c-6.108-6.108-9.886-14.546-9.886-23.867 0-18.641 15.112-33.753 33.753-33.753 9.321 0 17.759 3.778 23.867 9.886l175.025 174.907 174.946-174.986c6.108-6.108 14.546-9.886 23.867-9.886 18.641 0 33.753 15.112 33.753 33.753 0 9.321-3.778 17.759-9.886 23.867l-174.907 175.025 174.986 174.946c6.108 6.108 9.886 14.546 9.886 23.867 0 18.641-15.112 33.753-33.753 33.753-9.321 0-17.759-3.778-23.867-9.886l-175.025-174.907z"  horiz-adv-x="1024" />

    
    <glyph glyph-name="tianjiashipinhechupintujiahao" unicode="&#58907;" d="M466.45836976 426.67737677H297.75384011c-23.20045314 0-42.39095141-18.90407293-42.39095141-42.10452608 0-23.48687849 18.90407293-42.10452608 42.39095141-42.10452607h168.70452965v-168.70452965c0-23.48687849 18.90407293-42.39095141 42.10452608-42.39095142 23.48687849 0 42.10452608 18.90407293 42.10452606 42.39095143v168.70452964h168.70452964c23.20045314 0 42.39095141 18.90407293 42.39095143 42.10452606 0 23.48687849-18.90407293 42.10452608-42.39095143 42.10452609h-168.70452964V595.38190642c0 23.20045314-18.90407293 42.39095141-42.10452606 42.3909514-23.48687849 0-42.10452608-18.90407293-42.10452608-42.39095141v-168.70452964z"  horiz-adv-x="1024" />

    
    <glyph glyph-name="ziyuan" unicode="&#58908;" d="M976.896 213.333333h-68.266667V440.661333h-341.333333V554.666667h68.266667a47.104 47.104 0 0 1 47.104 47.104V848.896A47.104 47.104 0 0 1 635.562667 896H388.437333A47.104 47.104 0 0 1 341.333333 848.896v-247.125333a47.104 47.104 0 0 1 47.104-47.104h68.266667v-114.005334h-341.333333V213.333333h-68.266667a47.104 47.104 0 0 1-47.104-47.104v-247.125333a47.104 47.104 0 0 1 47.104-47.104h247.125333a47.104 47.104 0 0 1 47.104 47.104v247.125333a47.104 47.104 0 0 1-47.104 47.104h-68.266666V327.338667h569.344V213.333333h-68.266667a47.104 47.104 0 0 1-47.104-47.104v-247.125333a47.104 47.104 0 0 1 47.104-47.104h247.125333a47.104 47.104 0 0 1 47.104 47.104v247.125333a47.104 47.104 0 0 1-44.373333 47.104z"  horiz-adv-x="1024" />

    
    <glyph glyph-name="fenjifenleiguanli" unicode="&#58956;" d="M912.14 128.959h-49.858V238.9c0 52.415-43.466 95.88-95.88 95.88H543.96v152.13h95.88c42.187 0 76.704 34.517 76.704 76.704V819.295C716.544 861.484 682.027 896 639.84 896H384.16c-42.187 0-76.704-34.517-76.704-76.704v-255.68c0-42.188 34.517-76.705 76.704-76.705h95.88v-152.13H256.32c-52.415 0-95.88-43.465-95.88-95.88V128.96h-47.301c-26.847 0-48.58-21.733-48.58-48.58v-159.8c0-25.568 21.733-47.3 48.58-47.3h159.8c17.897 0 33.238 10.227 42.187 24.289 3.835 6.392 6.392 15.34 6.392 23.011v159.8c0 26.847-21.733 48.58-48.58 48.58H224.36V238.9c0 17.898 14.062 31.96 31.96 31.96h223.72V128.96h-48.58c-26.846 0-48.579-21.733-48.579-48.58v-159.8c0-26.846 21.733-48.579 48.58-48.579h159.8c26.846 0 48.58 21.733 48.58 48.58v159.8c0 26.846-21.734 48.579-48.58 48.579h-48.58V270.86h221.164c17.898 0 31.96-14.062 31.96-31.96V128.96h-46.022c-26.847 0-48.58-21.733-48.58-48.58v-159.8c0-8.949 2.557-16.619 6.393-23.011 7.67-14.062 24.29-24.29 42.187-24.29h159.8c26.846 0 48.58 21.733 48.58 48.58V80.38c1.278 26.846-20.455 48.579-46.023 48.579z"  horiz-adv-x="1024" />

    
    <glyph glyph-name="shanchu1" unicode="&#58902;" d="M512 864c265.6 0 480-214.4 480-480S777.6-96 512-96 32 118.39999999999998 32 384 246.4 864 512 864zM512-128C230.4-128 0 102.39999999999998 0 384S230.4 896 512 896s512-230.4 512-512-230.4-512-512-512z m0 960C265.6 832 64 630.4 64 384s201.6-448 448-448 448 201.6 448 448S758.4 832 512 832zM320 416h384c19.2 0 32-12.8 32-32s-12.8-32-32-32H320c-19.2 0-32 12.8-32 32s12.8 32 32 32z"  horiz-adv-x="1024" />

    
    <glyph glyph-name="iconsj" unicode="&#58903;" d="M511.149121 832.14467c-246.388597 0-446.14206-199.685925-446.14206-446.077591 0-246.38655 199.753463-446.106244 446.14206-446.106244 246.356874 0 446.076568 199.719694 446.076568 446.106244C957.225689 632.458745 757.505995 832.14467 511.149121 832.14467L511.149121 832.14467zM734.257501 336.83377099999996L497.387699 336.83377099999996c-5.009084 0-9.818623 0.997724-14.229073 2.869351-13.091156 5.544273-22.317285 18.540262-22.317285 33.669844L460.841342 610.244814c0 20.205181 16.367783 36.57501 36.546358 36.57501 20.247136 0 36.613896-16.369829 36.613896-36.57501l0-200.25693 200.255906 0c20.212344 0 36.57501-16.367783 36.57501-36.580127C770.832512 353.201553 754.464729 336.83377099999996 734.257501 336.83377099999996L734.257501 336.83377099999996zM734.257501 336.83377099999996"  horiz-adv-x="1024" />

    
    <glyph glyph-name="shujufenleifenji_weixuanzhong" unicode="&#59086;" d="M505.792 896l234.752-135.552v-271.04L505.792 353.92 271.04 489.408V760.448zM776.832 434.368l234.752-135.552v-271.04l-234.752-135.552-234.688 135.552V298.816zM234.752 434.368l234.752-135.552v-271.04l-234.752-135.552L0 27.776V298.816z"  horiz-adv-x="1024" />

    
    <glyph glyph-name="tianjia" unicode="&#58904;" d="M825.82 696.975C741.931 780.456 630.434 826.434 511.806 826.434S281.64 780.456 197.744 696.976 67.6 502.386 67.6 384.234s46.225-229.24 130.143-312.75 195.394-129.458 314.033-129.458 230.155 45.928 314.013 129.457 130.143 194.63 130.143 312.781-46.156 229.201-130.114 312.711z m-91.916-344.472H543.537v-190.377c0-17.524-14.206-31.731-31.73-31.731s-31.731 14.207-31.731 31.73V352.504H289.698c-17.524 0-31.73 14.206-31.73 31.73s14.206 31.731 31.73 31.731h190.377V606.3330000000001c0 17.524 14.206 31.73 31.73 31.73 17.526 0 31.731-14.206 31.731-31.73v-190.377h190.367c17.524 0 31.73-14.207 31.73-31.73s-14.206-31.732-31.73-31.732v0.009z"  horiz-adv-x="1028" />

    
    <glyph glyph-name="wenben" unicode="&#58905;" d="M662.5 584.1c-27.5 0-49.8 22.3-49.8 49.8V833l248.9-248.9H662.5z m0-49.8h199.1v-497.8c0-55-44.6-99.6-99.6-99.6H264.3c-55 0-99.6 44.6-99.6 99.6V733.4c0 55 44.6 99.6 99.6 99.6H563v-199.1c0-55 44.5-99.6 99.5-99.6z m-373.3-448h298.7v49.8H289.2v-49.8z m0 149.4h448v49.8h-448v-49.8z m0 199.1V385h448v49.8h-448z"  horiz-adv-x="1024" />

    
    <glyph glyph-name="leimupinleifenleileibie" unicode="&#58899;" d="M369.40572214 754.78857422H255.27236413C192.55695295 754.78857422 141.21142578 703.44304705 141.21142578 640.72763587V526.6666975c0-62.71541119 51.34552718-114.06093836 114.06093836-114.06093836H369.3333025c62.71541119 0 114.06093836 51.34552718 114.06093836 114.06093836V640.72763587C483.4666605 703.44304705 432.12113332 754.78857422 369.40572214 754.78857422z m399.32191373 0H654.59427786c-62.71541119 0-114.06093836-51.34552718-114.06093836-114.06093836V526.6666975c0-62.71541119 51.34552718-114.06093836 114.06093836-114.06093836h114.06093835c62.71541119 0 114.06093836 51.34552718 114.06093837 114.06093836V640.72763587C882.78857422 703.44304705 831.44304705 754.78857422 768.72763587 754.78857422zM369.40572214 355.4666605H255.27236413C192.55695295 355.4666605 141.21142578 304.12113332 141.21142578 241.40572213999997v-114.06093835C141.21142578 64.55695294999998 192.55695295 13.211425780000013 255.27236413 13.211425780000013H369.3333025c62.71541119 0 114.06093836 51.34552718 114.06093836 114.06093836V241.40572213999997c0.07241965 62.71541119-51.27310752 114.06093836-113.98851872 114.06093836z m399.32191373 0H654.59427786c-62.71541119 0-114.06093836-51.34552718-114.06093836-114.06093836v-114.06093835c0-62.71541119 51.34552718-114.06093836 114.06093836-114.06093837h114.06093835c62.71541119 0 114.06093836 51.34552718 114.06093837 114.06093837V241.40572213999997c0.07241965 62.71541119-51.27310752 114.06093836-113.98851872 114.06093836z"  horiz-adv-x="1024" />

    
    <glyph glyph-name="youxituijianicon-sezhiFF" unicode="&#59015;" d="M604.541355 352.06638l297.2787 313.08663c22.335902 22.7839 0.447998 59.007742-3.263986 60.415736l0.447998 0.511997A546.23761 546.23761 0 0 1 516.029742 896a511.99776 511.99776 0 1 1 354.110451-883.772133c9.791957 11.007952 31.99986 29.82387 16.319929 53.503765z m-153.08733 159.9993H386.942307v-63.99972H322.430589v63.99972H257.918872v63.99972h64.511717v63.99972h64.511718v-63.99972h64.511718z m0 0M927.227943 453.313937A95.99958 95.99958 0 1 1 1023.99552 357.314357a96.447578 96.447578 0 0 1-96.767577 95.99958z m0 0"  horiz-adv-x="1024" />

    
    <glyph glyph-name="biaoqian" unicode="&#58913;" d="M926.000524 473.407422 687.387008 704.804582c-43.826158 42.493813-114.802676 43.030026-159.351288 1.326205L71.441611 280.826312c-4.923126-4.585435-7.269567-10.885931-7.019881-17.117866-0.023536-0.416486-0.037862-0.835018-0.037862-1.257643l0-288.372803c0-61.457724 49.552579-111.124913 110.817921-111.124913l299.771411 0c5.968945 0 11.694343 2.407839 15.874549 6.67298L927.985738 316.480346C970.902176 360.359716 970.058972 430.693598 926.000524 473.407422zM303.350424-9.294298c-54.953589 0-99.510388 44.545542-99.510388 99.503225 0 54.956659 44.556798 99.503225 99.510388 99.503225 54.955636 0 99.511411-44.546565 99.511411-99.503225C402.860812 35.252267 358.305037-9.294298 303.350424-9.294298z"  horiz-adv-x="1024" />

    
    <glyph glyph-name="boshimao" unicode="&#58898;" d="M945.083649 529.355529l-425.971671 183.198415c-2.608407 1.12666-5.383614 1.689479-8.128121 1.689479-2.759857 0-5.520737-0.562818-8.144494-1.689479L76.869738 529.355529c-8.979512-3.845585-14.925944-13.653975-14.925944-24.589025 0-10.954493 5.946432-20.744463 14.925944-24.608467l425.970648-183.199439c2.623757-1.146103 5.383614-1.708921 8.144494-1.708921 2.743484 0 5.519714 0.562818 8.128121 1.708921l331.187935 142.43399 0-145.715733c-17.753339-9.401114-30.089295-29.849842-30.089295-53.627385 0-23.778566 12.335956-44.226271 30.089295-53.627385l0-50.829665 43.617403 0 0 50.821479c17.762549 9.400091 30.106692 29.852912 30.106692 53.635571s-12.343119 44.236504-30.106692 53.636594L893.918339 458.151837l51.166333 22.007223c8.978489 3.864004 14.925944 13.652951 14.925944 24.608467C960.009593 515.701554 954.062138 525.509944 945.083649 529.355529zM510.98488 260.191206c-6.525624 0-12.93152 1.340531-19.031449 3.962242L226.412636 378.365676 226.412636 220.666004c0-129.162732 193.656605-167.930687 254.210749-167.930687l60.690244 0c45.354977 0 254.226099 38.767955 254.226099 167.930687L795.539728 378.365676 529.98256 264.153448C523.900028 261.532761 517.510504 260.191206 510.98488 260.191206z"  horiz-adv-x="1024" />

    
    <glyph glyph-name="bumen" unicode="&#58890;" d="M876.2 640H640.6V809.8c0 11-9 20-20 20h-473c-11 0-20-9-20-20v-853.3c0-11 9-20 20-20h492.5v-0.1h236c11 0 20 9 20 20V620c0.1 11-8.9 20-19.9 20zM512.1 203.89999999999998c0-6.6-5.4-12-12-12H268c-6.6 0-12 5.4-12 12V308.1c0 6.6 5.4 12 12 12h232c6.6 0 12-5.4 12-12v-104.2z m0 192.2c0-6.6-5.4-12-12-12H268c-6.6 0-12 5.4-12 12V500.3c0 6.6 5.4 12 12 12h232c6.6 0 12-5.4 12-12v-104.2z m0 191.9c0-6.6-5.4-12-12-12H268c-6.6 0-12 5.4-12 12V692.2c0 6.6 5.4 12 12 12h232c6.6 0 12-5.4 12-12V588z m320-383.9c0-6.6-5.4-12-12-12H716.3c-6.6 0-12 5.4-12 12V307.9c0 6.6 5.4 12 12 12h103.8c6.6 0 12-5.4 12-12v-103.8z m0 192.4c0-6.6-5.4-12-12-12H716.3c-6.6 0-12 5.4-12 12V500.3c0 6.6 5.4 12 12 12h103.8c6.6 0 12-5.4 12-12v-103.8z"  horiz-adv-x="1024" />

    
    <glyph glyph-name="biaoqian1" unicode="&#58892;" d="M990.65289285 352.50256643L515.68534735 826.78218011c-16.80518295 16.80518295-39.4086456 31.05519196-67.71211221 42.84830371C419.66976848 881.32531889 393.72492439 887.22187429 370.13870187 887.22187429L93.78680132 887.22187429C70.79023395 887.12359859 50.84022192 878.77014497 34.03503798 862.06323771 17.22985503 845.15977808 8.87640141 825.20976605 8.77812571 802.21319868l0-276.35190154c0-23.48794585 5.89655538-49.43278994 17.59139047-77.73625658 11.79311078-28.30346664 26.04311979-50.61210121 42.94657941-67.12245708l474.96754549-475.65547732c16.41207919-16.41207919 36.26381651-24.56898143 59.75176236-24.56898143 22.99656639 0 43.24140748 8.15690224 60.43969419 24.56898143L990.65289285 232.21283418999997c16.51035587 16.41207919 24.66725712 36.3620922 24.66725714 59.75176237C1015.32014999 315.05943865999996 1007.06497205 335.20600305000005 990.65289285 352.50256643zM281.49381773 614.50618227c-16.70690726-16.70690726-36.65692027-24.96208519-60.04659042-24.8638095-23.48794585 0-43.53623457 8.25517794-60.14486613 24.8638095-16.60863157 16.60863157-24.96208519 36.65692027-24.96208519 60.14486612 0 23.38967016 8.25517794 43.53623457 24.8638095 60.14486612s36.55864457 24.86380949 60.14486612 24.8638095c23.38967016 0 43.53623457-8.25517794 60.14486612-24.8638095 16.60863157-16.70690726 24.86380949-36.65692027 24.8638095-60.14486612C306.35762723 651.16310254 298.10244929 631.11481383 281.49381773 614.50618227z"  horiz-adv-x="1025" />

    
    <glyph glyph-name="dunpai" unicode="&#58894;" d="M813.44 685.386667a516.213333 516.213333 0 0 0-166.56 41.173333c-32.693333 14.186667-81.173333 46.933333-110.186667 67.413333a42.666667 42.666667 0 0 1-49.28 0c-29.066667-20.533333-77.6-53.333333-110.293333-67.466666a516.213333 516.213333 0 0 0-166.56-41.173334 42.666667 42.666667 0 0 1-39.893333-42.666666v-257.6A384.906667 384.906667 0 0 1 351.573333 58.666667l80-50.133334 57.6-36a42.666667 42.666667 0 0 1 45.226667 0l57.6 36 80 50.133334a384.8 384.8 0 0 1 181.333333 326.56v257.6a42.666667 42.666667 0 0 1-39.893333 42.56z m-100.586667-202.346667l-213.333333-213.333333a42.666667 42.666667 0 0 0-30.186667-12.48h-4.213333a42.666667 42.666667 0 0 0-31.306667 18.773333l-85.333333 128a42.666667 42.666667 0 1 0 70.986667 47.306667l56.48-84.48 176.533333 176.533333a42.666667 42.666667 0 0 0 60.32-60.32z"  horiz-adv-x="1024" />

    
    <glyph glyph-name="bumen-" unicode="&#58896;" d="M941 110s-53 0.5-41.4 0.6h12.7-12.7c-21.9-0.1-28.9-0.6-30-0.6 23.6 189.5-264.2 260.9-264.2 290.7 0 23.2 6.8 26.7 28 48.4 22.1 22.7 38.6 62.1 42.4 115.1 10.5 146.9-86.3 175.6-6.1 175.6s135.6-66.1 135.6-147.6c0-53.1-40.1-113.9-48.4-127.9-8.9-15-9.8-46.9-10.1-50.8-1.1-58.7 212.8-78.8 212.9-203.8h0.7v-79.9c0-11-8.7-19.8-19.4-19.8zM523.9 374.5c-1.3-72.3 266-97 266.1-250.9h0.8v-98.4c0-13.4-10.8-24.2-24.2-24.2H88.4c-13.4 0-24.2 10.8-24.2 24.2v98.4h0.8c0.6 165.9 264.8 181.3 266.1 250.9 0.4 3.6 0.5 41.7-12.6 62.5-13.8 22.1-60.6 92-60.6 157.4 0 100.3 69.2 181.7 169.5 181.7S597 694.8 597 594.4c0-65.4-53.6-138.6-60.6-157.4-7.5-20.4-12.2-57.7-12.5-62.5z"  horiz-adv-x="1024" />

    
    <glyph glyph-name="shitiguanli" unicode="&#59275;" d="M530.242 806.357L880.37 623.655c15.668-8.176 21.742-27.506 13.566-43.174a32 32 0 0 0-13.566-13.566L530.242 384.213a40 40 0 0 0-37.01 0L143.105 566.915c-15.669 8.176-21.742 27.506-13.566 43.174a32 32 0 0 0 13.566 13.566L493.232 806.357a40 40 0 0 0 37.01 0zM880.62 362.483L530.502 179.82a40 40 0 0 0-37.004 0L143.38 362.483c-15.67 8.175-21.744 27.504-13.57 43.173a32 32 0 0 0 13.57 13.57l100.241 52.297 249.376-134.637a40 40 0 0 1 38.006 0L780.38 471.523l100.241-52.298c15.67-8.175 21.744-27.504 13.57-43.172a32 32 0 0 0-13.57-13.57z m0-208L530.502-28.18a40 40 0 0 0-37.004 0L143.38 154.483c-15.67 8.175-21.744 27.504-13.57 43.173a32 32 0 0 0 13.57 13.57l100.241 52.297 249.376-134.637a40 40 0 0 1 38.006 0L780.38 263.523l100.241-52.298c15.67-8.175 21.744-27.504 13.57-43.172a32 32 0 0 0-13.57-13.57z"  horiz-adv-x="1024" />

    
    <glyph glyph-name="diyu" unicode="&#58917;" d="M1251.137558 802.304642l-61.608449-27.40808a8.635422 8.635422 0 0 0-8.567158 0.955699L1119.046313 823.261755l-1.023963 0.81917L1054.400107 889.853491a8.703687 8.703687 0 0 1-5.324608 2.491643L1007.639124 895.929005a8.191705 8.191705 0 0 1-5.35874-1.365284l-35.087804-22.731982a8.669555 8.669555 0 0 1-3.481475-4.573702l-24.302058-81.439201a8.259969 8.259969 0 0 0-4.915023-5.392873l-27.783533-10.922273a8.294101 8.294101 0 0 1-5.324609-7.78212v-28.090722c0-3.89106 2.798833-7.372535 6.587497-8.191705l56.829954-12.048633a8.259969 8.259969 0 0 0 2.832964-15.08639l-55.294009-35.326729c-0.307189-0.136528-0.580246-0.409585-0.853303-0.546113L791.71943 563.960156a8.464762 8.464762 0 0 0-5.051551-1.94553l-53.450876-1.94553a7.713856 7.713856 0 0 1-3.071889-0.682642l-51.949063-22.731982a8.294101 8.294101 0 0 0-7.031214 0.136529l-69.049247 32.971613a8.60129 8.60129 0 0 1-2.662305 0.853302l-90.518341 10.649217a8.362366 8.362366 0 0 0-6.758157 5.119816l-12.765407 30.889554a7.918648 7.918648 0 0 1-4.198249 4.300646l-78.162519 37.101597a8.191705 8.191705 0 0 0-4.778495 6.655761l-1.570077 16.622335v0.955699l1.023964 35.326728a8.635422 8.635422 0 0 1-1.29702 4.573702l-33.24467 52.495177a8.567158 8.567158 0 0 1-11.400123 2.7647l-54.16765-31.742857-1.706605-1.228756-12.048633-11.912104a8.874347 8.874347 0 0 0-7.167742-2.355116l-27.476344 3.754532a8.533026 8.533026 0 0 1-8.874348-4.846759l-13.038464-28.807496a8.294101 8.294101 0 0 0-7.850384-4.846759l-35.497388 0.81917a8.464762 8.464762 0 0 1-8.294102-5.802457l-19.933149-64.134225a8.191705 8.191705 0 0 0-6.314439-5.665929l-94.614194-19.694225c-0.409585-0.136528-0.819171-0.136528-1.262888-0.409585l-51.914931-19.113978a8.294101 8.294101 0 0 1-5.324608-9.283933l3.925192-21.469094a22.458925 22.458925 0 0 1 0.409585-1.501812l34.405161-86.149432c0-0.136528 0.136528-0.273057 0.136529-0.409585 1.94553-4.164117 31.981782-68.161813 31.572196-74.510385-0.409585-5.427005-15.291183-43.211244-20.479262-55.976651a7.986912 7.986912 0 0 1 0.955699-7.884516l13.482181-18.294808c0.443717-0.546114 0.853303-1.092227 1.399416-1.501813l113.147927-93.078249c0.546114-0.546114 1.262888-0.819171 1.94553-1.262888l174.585715-76.285254c1.706605-0.682642 3.515607-0.853303 5.222212-0.580246l104.819693 22.595454a8.737819 8.737819 0 0 0 5.904854-0.853303l40.856129-22.151736a8.123441 8.123441 0 0 0 3.925192-9.693518l-24.848172-79.6302a7.986912 7.986912 0 0 1 2.662304-8.737818l89.972228-75.193027c2.389247-1.94553 5.597665-2.491644 8.533026-1.365284l110.485623 43.347773a8.328234 8.328234 0 0 0 7.440798-0.682642l72.018741-43.381905 0.682642-0.409585 32.288971-23.824209a7.850384 7.850384 0 0 1 2.389247-1.262888l14.164824-4.573702a8.328234 8.328234 0 0 1 10.922273 6.928817l1.570077 14.540277a8.021045 8.021045 0 0 0 4.334777 6.382703l180.490569 98.334593a8.089309 8.089309 0 0 1 3.379079 3.481475l64.270753 122.431859a8.089309 8.089309 0 0 1 0.989831 3.993456l-2.935361 97.78848a7.474931 7.474931 0 0 1-1.979662 4.983287l-38.159693 45.56636-27.373948 34.200369a8.259969 8.259969 0 0 0 0.136528 10.410292l41.982489 50.413118a9.147404 9.147404 0 0 0 2.935361 2.218587 8.259969 8.259969 0 0 1-1.399416 15.495975l-19.250507 5.256344c-0.682642 0.136528-1.365284 0.307189-2.252719 0.307189h-51.505346a8.396498 8.396498 0 0 0-6.724025 3.310815l-12.628878 17.168448a8.362366 8.362366 0 0 0 1.535944 11.502519l62.325223 48.194532a8.43063 8.43063 0 0 0 13.61871-6.928817l-0.580246-10.922274a8.396498 8.396498 0 0 1 11.809708-8.055176l26.384117 11.639047a7.884516 7.884516 0 0 1 2.082059 1.365285l124.0702 109.017942a8.191705 8.191705 0 0 1 2.832964 5.529401l5.461137 65.124055a8.294101 8.294101 0 0 0 7.986913 7.611459l12.49235 0.409586a8.191705 8.191705 0 0 1 8.021045 7.747987l5.870721 80.483503a8.498894 8.498894 0 0 1-11.946236 8.294101zM1099.556882 81.571122l-17.953487-53.996989 23.141567-32.118311 17.953487 34.200369 13.755238 36.282427-9.55699 25.906268-27.339815-10.239632z m-291.931891-173.254563l-25.257757-15.495975 17.953487-20.786452 23.175699 5.119816 26.384117 24.916436-8.43063 14.574409-33.824916-8.328234z"  horiz-adv-x="1263" />

    
    <glyph glyph-name="lujing" unicode="&#58960;" d="M1251.037596 802.150421l-61.630305-27.391247a8.639762 8.639762 0 0 0-8.575764 0.959974l-61.886298 47.422696-1.023972 0.831977-63.61425 65.854189a8.703761 8.703761 0 0 1-5.311854 2.495931l-41.47086 3.583902a8.191775 8.191775 0 0 1-5.375852-1.343964l-35.071036-22.719375a8.639762 8.639762 0 0 1-3.455905-4.543875l-24.319331-81.469759a8.255773 8.255773 0 0 0-4.927864-5.375853l-27.775236-10.943699a8.319771 8.319771 0 0 1-5.311854-7.807785v-28.095227a8.447768 8.447768 0 0 1 6.399824-8.191775l56.830437-12.031669a8.255773 8.255773 0 0 0 2.815922-15.103585l-55.294479-35.327028-0.831977-0.575984-119.612711-98.429294a8.447768 8.447768 0 0 0-5.055861-1.919947l-53.43853-1.919947a7.743787 7.743787 0 0 1-3.071916-0.703981l-51.966571-22.719375a8.319771 8.319771 0 0 0-7.039806 0l-68.990103 33.08709a8.575764 8.575764 0 0 1-2.687926 0.831977l-90.493511 10.623708a8.383769 8.383769 0 0 0-6.783814 5.119859l-12.799648 30.91115a7.935782 7.935782 0 0 1-4.223884 4.287882l-78.141851 37.11898a8.191775 8.191775 0 0 0-4.799868 6.399824l-1.599956 16.639542v1.215967l1.023972 35.327028a8.639762 8.639762 0 0 1-1.279965 4.543875l-33.023092 52.478557a8.575764 8.575764 0 0 1-11.391686 2.751924l-54.142511-31.99912-1.727953-1.215966-12.031669-11.903673a8.895755 8.895755 0 0 0-7.167803-2.367935l-27.455245 3.775896a8.511766 8.511766 0 0 1-8.895755-4.863866l-12.799648-28.799208a8.319771 8.319771 0 0 0-7.871784-4.863866l-35.711018 1.08797a8.447768 8.447768 0 0 1-8.319771-5.82384l-19.903453-63.99824a8.191775 8.191775 0 0 0-6.399824-5.695843l-94.589398-19.711458a4.927864 4.927864 0 0 1-1.279965-0.38399l-51.902573-19.199472a8.319771 8.319771 0 0 1-5.311854-9.279744l3.903893-21.439411q0-0.767979 0.383989-1.471959l34.303057-86.20563v-0.383989a723.180113 723.180113 0 0 0 31.679129-74.55795 595.759617 595.759617 0 0 0-20.479437-55.99846 7.99978 7.99978 0 0 1 0.959974-7.871783l13.503628-18.303497a8.383769 8.383769 0 0 1 1.407961-1.47196l113.148889-93.053441a11.199692 11.199692 0 0 1 1.919947-1.279964l174.587199-76.285903a9.855729 9.855729 0 0 1 5.247856-0.575984l104.829117 22.591379a8.767759 8.767759 0 0 0 5.887838-0.831977l40.830877-22.143391a8.127776 8.127776 0 0 0 3.903893-9.663734l-24.831317-79.613811a7.99978 7.99978 0 0 1 2.687926-8.767759l89.981525-75.26193a8.575764 8.575764 0 0 1 8.511766-1.343963l110.524961 43.326808a8.319771 8.319771 0 0 0 7.423795-0.70398l71.998021-43.390807 0.70398-0.38399 31.99912-23.807345a7.871784 7.871784 0 0 1 2.367935-1.279965l14.143611-4.543875a8.319771 8.319771 0 0 1 10.943699 6.91181l1.599956 14.527601a7.99978 7.99978 0 0 0 4.351881 6.399824l180.475036 98.365295a8.063778 8.063778 0 0 1 3.391907 3.455905l63.99824 122.428633a8.063778 8.063778 0 0 1 0.959974 3.967891l-2.943919 97.789311a7.487794 7.487794 0 0 1-1.983946 4.991862l-38.398944 45.566747-26.495271 34.495052a8.255773 8.255773 0 0 0 0 10.431713l41.982845 50.430613a9.151748 9.151748 0 0 0 2.943919 2.239938 8.255773 8.255773 0 0 1-1.407961 15.487574l-19.199472 5.247856a10.55971 10.55971 0 0 1-2.239938 0h-51.198592a8.383769 8.383769 0 0 0-6.719815 3.327908l-12.799648 17.151529a8.383769 8.383769 0 0 0 1.535957 11.519683l62.334286 48.190675a8.447768 8.447768 0 0 0 13.631625-6.91181l-0.575984-10.943699a8.383769 8.383769 0 0 1 11.839674-8.063778l26.367275 11.647679a7.871784 7.871784 0 0 1 2.111942 1.343963l124.092588 108.797008a8.191775 8.191775 0 0 1 2.815922 5.503849l5.439851 65.150208a8.319771 8.319771 0 0 0 7.99978 7.615791l12.799648 0.383989a8.191775 8.191775 0 0 1 7.99978 7.743787l5.695843 80.765779a8.511766 8.511766 0 0 1-11.967671 8.319772z m-151.547832-720.620183l-17.983505-54.014515 23.167362-31.99912 17.983506 34.17506 13.695623 36.478997-9.535737 25.599296-27.327249-10.239718z m-291.959971-173.243236l-25.279305-15.487574 17.983506-20.799428 23.167362 5.119859 26.367275 24.895316-8.447767 14.591598-33.855069-8.319771z"  horiz-adv-x="1262" />

    
    <glyph glyph-name="changshang" unicode="&#59442;" d="M986.651429-56.777143h-29.504V545.472c0 25.499429-9.938286 49.462857-27.940572 67.446857a94.802286 94.802286 0 0 1-67.446857 27.940572H639.195429V799.835429c0 25.499429-9.938286 49.462857-27.949715 67.446857A94.802286 94.802286 0 0 1 543.817143 895.222857H162.258286a94.902857 94.902857 0 0 1-67.437715-27.913143 94.710857 94.710857 0 0 1-27.949714-67.474285v-856.612572H32.777143a31.780571 31.780571 0 0 1-31.789714-31.798857 31.780571 31.780571 0 0 1 31.789714-31.789714h953.874286a31.780571 31.780571 0 0 1 31.789714 31.789714 31.780571 31.780571 0 0 1-31.789714 31.798857zM321.234286 68.571429h-127.177143V195.748571h127.177143V68.571429z m0 254.363428h-127.177143v127.177143h127.177143v-127.177143z m0 254.363429h-127.177143v127.177143h127.177143v-127.177143zM512.009143 68.571429h-127.177143V195.748571H512V68.571429z m0 254.363428h-127.177143v127.177143H512v-127.177143z m0 254.363429h-127.177143v127.177143H512v-127.177143zM829.970286 68.571429h-127.177143V195.748571h127.177143V68.571429z m0 254.363428h-127.177143v127.177143h127.177143v-127.177143z"  horiz-adv-x="1024" />

    
    <glyph glyph-name="diyuku" unicode="&#58953;" d="M441.715 532.713a84.44 84.35 33.932 1 1 140.12 94.27 84.44 84.35 33.932 1 1-140.12-94.27zM511.78 832.96c-139.65 0-253.25-113.55-253.25-253.15 0-178.38 223.82-404.16 233.36-413.67 10.99-10.98 28.8-10.98 39.79 0 9.54 9.5 233.36 235.29 233.36 413.67-0.01 139.59-113.61 253.15-253.26 253.15z m0-393.79c-77.57 0-140.69 63.07-140.69 140.64s63.12 140.64 140.69 140.64 140.69-63.07 140.69-140.64-63.12-140.64-140.69-140.64zM891.61 280.69c0 26.33-21.55 47.87-47.89 47.87H719.28c-75.21-118-177.87-211.39-184.39-217.89l-3.23-3.23c-10.99-10.98-28.8-10.98-39.79 0l-3.23 3.23c-6.52 6.49-109.18 99.89-184.39 217.89H184.29c-26.34 0-47.89-21.54-47.89-47.87L66-19.24c0-26.33 21.55-47.87 47.89-47.87H914.1c26.34 0 47.89 21.54 47.89 47.87l-70.38 299.93z"  horiz-adv-x="1024" />

    
    <glyph glyph-name="password" unicode="&#58987;" d="M717.264 506.217h-88.11v32.804c0 55.306-15.181 147.844-117.478 147.844-106.211 0-117.478-103.295-117.478-147.844v-32.804h-88.11v32.804c0 144.89 80.759 238.391 205.587 238.391 124.832 0 205.587-93.503 205.587-238.391v-32.804zM570.419 265.417c0 33.286-26.448 60.153-58.741 60.153s-58.737-26.867-58.737-60.153c0-22.534 11.774-41.663 29.399-51.873v-68.559c0-16.627 13.193-30.366 29.368-30.366 16.178 0 29.373 13.739 29.373 30.366v68.559c17.589 10.211 29.338 29.339 29.338 51.873v0zM805.374 385.814v-301.045c0-49.913-39.668-90.548-88.11-90.548h-411.175c-48.408 0-88.11 40.635-88.11 90.548l0 301.045c0 49.886 39.673 90.551 88.11 90.551h411.175c48.442 0.001 88.11-40.664 88.11-90.551v0z"  horiz-adv-x="1024" />

    
    <glyph glyph-name="loudou" unicode="&#59052;" d="M121.589 729.586l299.971-397.442v-204.609l180.088-87.891v292.5l300.146 397.442h-780.205z"  horiz-adv-x="1024" />

    
    <glyph glyph-name="ren1" unicode="&#59075;" d="M577.7 21.2H435.8c-134.6 0-240.8 0-240.8 71.4v14.2c-0.3 133.4 107.5 241.8 240.8 242.4h141.8c133.4-0.5 241.1-109 240.8-242.4v-14.2c0.1-71.4-111.5-71.4-240.7-71.4z m-78 357.1c-106.3-0.7-193.1 84.9-193.8 191.2-0.8 106.2 84.8 193 191.1 193.7 106.3 0.8 193.1-84.8 193.8-191.1v-1.3c0.3-106-85.2-192.1-191.1-192.5z"  horiz-adv-x="1024" />

    
    <glyph glyph-name="shezhi1" unicode="&#58900;" d="M811.67671303 589.19164298L729.47143533 506.74580363l-80.18723228 14.55398286-14.32678519 80.10704464 82.20527707 82.49929714C698.62608026 702.38928516 672.28457408 710.82230933 652.79907681 709.80660434S591.24201143 697.7250616 558.77954723 663.2445513c-31.40666601-33.17078518-64.43044115-95.02186998-35.18882996-163.68886916 3.48814453-8.29937876 7.41731918-19.20484182-4.22319473-30.84535571S206.54376577 173.64804157000003 206.54376577 173.64804157000003c-28.22590553-24.29673154-26.19449613-69.25503936-0.14701004-95.44953548 26.47515097-26.04748608 71.15280397-27.65123065 95.44953548 0.44103011 0 0 281.1097067 299.43248897 294.92863941 312.97076682 12.36219818 12.02808493 23.42803655 8.0187233 30.84535569 4.22319407 51.8009521-26.72907722 125.62666341-3.48814453 163.83587923 34.74780051s45.30578633 75.228988 46.41504298 94.153175-5.34581529 43.64858338-26.1944955 64.45717038zM272.45767066 111.51630132000003a23.34784889 23.34784889 0 1 0-4e-8 33.02377515 23.53495276 23.53495276 0 0 0 0-33.02377515z"  horiz-adv-x="1024" />

    
    <glyph glyph-name="sucaiku" unicode="&#58889;" d="M947.63 493c-0.09 1.24-0.2 2.47-0.33 3.7q-0.63 5.86-1.78 11.57c-0.28 1.39-0.58 2.76-0.91 4.13a123.8 123.8 0 0 1-13.24 33.35c-1 1.75-2 3.46-3.13 5.15a126.32 126.32 0 0 1-12.78 16.65q-2 2.22-4.14 4.34c-0.76 0.75-1.52 1.5-2.3 2.23q-2 1.87-4 3.67a124.59 124.59 0 0 1-82 30.7H662.44L532.28 709.06l-106.87 82.55a27.69 27.69 0 0 1-16.82 5.72h-215.2a124.84 124.84 0 0 1-40.79-6.87c-2.64-0.91-5.24-1.9-7.8-3-1.86-0.79-3.71-1.62-5.52-2.5s-3.62-1.8-5.39-2.76c-3.53-1.92-7-4-10.29-6.26-0.83-0.56-1.65-1.13-2.47-1.71A124.92 124.92 0 0 1 68.5 672.44v-579a125 125 0 0 1 7.63-42.9c0.35-1 0.72-1.9 1.09-2.85a125.46 125.46 0 0 1 76.15-72.49h0.07a125.09 125.09 0 0 1 39.95-6.57h629.67a125 125 0 0 1 118.34 84.78c0.42 1.26 0.82 2.53 1.21 3.8q1.1 3.62 2 7.31a125.39 125.39 0 0 1 3.39 28.93V483.62v3.35c-0.11 2.03-0.21 4.03-0.37 6.03zM288.38 352.90999999999997h-0.06a27.51 27.51 0 1 0 0.06 0z m27.48-168a27.49 27.49 0 1 0-27.48 27.48 27.49 27.49 0 0 0 27.48-27.52z m436.62 195.87v-0.78c0-15-10.78-27.1-24.08-27.1H385.73c-13.25 0-24.08 12.15-24.08 27.1v0.77c0.06 15 10.77 27.1 24.08 27.15h342.73c13.3-0.04 24.02-12.19 24.02-27.14zM385.73 212.35000000000002h342.73c13.3 0 24-12.09 24-27v-0.77c0-14.9-10.78-27-24.08-27.16H385.73c-13.25 0-24.08 12.26-24.08 27.16v0.77c0 14.85 10.77 27 24.08 27z m-192.26 525h204.06l166.76-128.84h-370.9a124.47 124.47 0 0 1-64.89-18.25v82.11a65.16 65.16 0 0 0 64.97 64.96z"  horiz-adv-x="1024" />

    
    <glyph glyph-name="kaiguanguan-copy" unicode="&#58880;" d="M1021.76 383.876c0 169.952-137.77 307.727-307.724 307.727h-404.235c-169.955 0-307.724-137.775-307.724-307.727s137.77-307.724 307.724-307.724h404.235c169.955 0 307.724 137.772 307.724 307.724zM993.655 383.22900000000004c0-154.236-125.03-279.267-279.269-279.268-154.23 0-279.264 125.03-279.264 279.267 0 154.24 125.035 279.269 279.263 279.269 154.238 0 279.269-125.031 279.269-279.269z"  horiz-adv-x="1024" />

    
    <glyph glyph-name="bianji" unicode="&#58941;" d="M807.31599023 553.74711791a32.81288782 32.81288782 0 0 1 0 47.53896966L729.28608757 679.31599023a32.81288782 32.81288782 0 0 1-47.53896967 0l-61.10407411-61.10407413 128.92959639-128.92959639 57.74335005 64.46479819zM206.47962941 207.40922579000005V78.47962941000003h128.99070046l373.40699695 376.82882509-128.92959639 128.92959639L206.47962941 207.53143394000006z"  horiz-adv-x="1024" />

    
    <glyph glyph-name="switch-close" unicode="&#58888;" d="M2.24 384.124c0-169.95200001 137.77-307.727 307.724-307.727l404.235 0c169.955 0 307.724 137.775 307.724 307.727s-137.77 307.724-307.72400001 307.724l-404.23499999 0c-169.955 0-307.724-137.772-307.724-307.724zM30.345 384.771c0 154.236 125.03 279.267 279.269 279.268 154.23 0 279.264-125.03 279.264-279.267 0-154.24-125.035-279.269-279.263-279.269-154.238 0-279.269 125.031-279.269 279.269z"  horiz-adv-x="1024" />

    
    <glyph glyph-name="zhiding1" unicode="&#58986;" d="M757.25170375 670.42534744H265.78161072C243.58364627 670.42534744 225.57465256 652.27314105 225.57465256 629.93196395c0-22.37698028 18.00899373-40.52918666 40.20695816-40.52918668H757.25170375c22.19796443 0 40.20695815 18.15220639 40.20695816 40.52918668C797.45866191 652.27314105 779.44966817 670.42534744 757.25170375 670.42534744zM541.07217276 547.44146388a40.67239933 40.67239933 0 0 1-2.9358598 2.68523764l-1.43212674 1.07409505c-0.53704752 0.42963802-1.10989822 0.89507921-1.71855209 1.28891406l-1.75435525 1.07409505-1.61114257 0.96668555-1.82596159 0.89507922-1.75435526 0.7876697-1.79015842 0.6802602-1.9333711 0.6802602-1.79015843 0.46544119-2.00497742 0.50124435-2.14819011 0.32222853-1.75435526 0.25062217a40.45758033 40.45758033 0 0 1-3.93834852 0.21481901l-0.60865387-0.03580317a39.88472963 39.88472963 0 0 1-29.00056642-11.81504558L279.88805907 342.57573413a40.74400567 40.74400567 0 0 1 0-57.28506949 39.9205328 39.9205328 0 0 1 56.8196283 0l135.80141787 136.83970972v-282.98824324c0-22.37698028 18.00899373-40.4933835 40.20695813-40.4933835s40.17115497 18.11640323 40.17115497 40.49338349V421.02047617l134.6199133-135.69400836a39.9205328 39.9205328 0 0 1 56.85543147 0 40.74400567 40.74400567 0 0 1 0 57.28506948L541.07217276 547.44146388z"  horiz-adv-x="1024" />

    
    <glyph glyph-name="leixing" unicode="&#58924;" d="M277.942857 822.857143c109.714286 0 204.8-87.771429 204.8-204.8v-204.8H277.942857C160.914286 420.571429 73.142857 508.342857 73.142857 618.057143S160.914286 822.857143 277.942857 822.857143z m468.114286 0C863.085714 822.857143 950.857143 735.085714 950.857143 618.057143s-87.771429-204.8-204.8-204.8H548.571429V618.057143C548.571429 735.085714 636.342857 822.857143 746.057143 822.857143zM277.942857 347.428571h204.8v-204.8c0-109.714286-87.771429-204.8-204.8-204.8S73.142857 32.914286 73.142857 149.942857s87.771429 197.485714 204.8 197.485714z m270.628572 0h204.8c109.714286 0 204.8-87.771429 204.8-204.8S863.085714-54.857143 746.057143-54.857143s-204.8 87.771429-204.8 204.8V347.428571z"  horiz-adv-x="1024" />

    
    <glyph glyph-name="kechengsucaiku" unicode="&#58995;" d="M483.374544 824.361403c15.897062 9.543354 41.355897 9.543354 57.251935 0l349.821317-197.180871c15.915481-9.541307 15.915481-22.287609 0-31.830963L537.43888 398.241352c-15.896038-9.541307-41.337477-9.541307-57.233515 0L130.367675 595.349569c-15.898085 9.543354-15.898085 22.289656 0 31.830963l353.006869 197.180871z m-15.899108-451.614701c15.899108-9.541307 28.626991-28.625968 28.626991-47.710628v-365.662098c0-19.084661-12.727882-25.494651-28.626991-15.95232L127.198495 134.266216c-15.897062 9.541307-28.625968 28.626991-28.625967 47.710628V544.506601c0 19.082614 12.728906 25.421996 28.625967 15.877618l340.276941-187.637517z m429.345511 190.843536c15.897062 9.543354 28.606525 0 28.606525-15.878642V178.771849c0-15.879666-12.709463-38.169321-28.606525-47.711652L556.524564-59.711707c-15.898085-9.54233-28.626991 0-28.626991 15.880688V328.241069c0 15.880689 12.727882 38.169321 28.626991 47.711651l340.296383 187.637518z"  horiz-adv-x="1024" />

    
    <glyph glyph-name="baogao2" unicode="&#58962;" d="M704.9 486.7c-79.4 0-144.3 65-144.3 144.3V837.4H193.9c-50 0-90.9-40.9-90.9-90.9v-733.2c0-50 40.9-90.9 90.9-90.9h611.2c50 0 90.9 40.9 90.9 90.9V486.7H704.9z m-501.5-105h333.4c13.2 0 23.8-15.1 23.8-33.7s-10.7-33.7-23.8-33.7H203.4c-13.1 0-23.8 15.1-23.8 33.7s10.6 33.7 23.8 33.7z m481.9-235.2h-472c-18.6 0-33.7 15.1-33.7 33.7s15.1 33.7 33.7 33.7h472c18.6 0 33.7-15.1 33.7-33.7s-15.1-33.7-33.7-33.7zM652 657.3V837.4l271-271H742.9c-50 0.1-90.9 41-90.9 90.9z"  horiz-adv-x="1024" />

    
    <glyph glyph-name="moban" unicode="&#59054;" d="M438.857143 530.285714h512v-458.386285c0-69.997714-56.758857-126.756571-126.756572-126.756572H438.857143V530.285714zM199.899429-54.857143A126.756571 126.756571 0 0 0 73.142857 71.899429V530.285714h292.571429v-585.142857H199.899429zM950.857143 603.428571H73.142857V696.100571C73.142857 766.098286 129.901714 822.857143 199.899429 822.857143h624.201142C894.098286 822.857143 950.857143 766.098286 950.857143 696.100571V603.428571z"  horiz-adv-x="1024" />

    
    <glyph glyph-name="mobanguanli" unicode="&#59006;" d="M384 416.256H96.256C45.056 416.256 0 460.8 0 512V800.256C0 851.456 45.056 896 96.256 896H384c51.2 0 96.256-44.544 96.256-96.256V512c0-51.2-45.056-95.744-96.256-95.744z m0-544.256H96.256C45.056-128 0-82.944 0-31.744V256c0 51.2 45.056 96.256 96.256 96.256H384c51.2 0 96.256-45.056 96.256-96.256v-281.6c0-57.344-45.056-102.4-96.256-102.4z m543.744 544.256H640c-51.2 0-96.256 45.056-96.256 96.256V800.256C543.744 851.456 588.8 896 640 896h281.6c57.344 0 102.4-44.544 102.4-96.256V512c0-51.2-45.056-95.744-96.256-95.744z m37.376-322.048c1.024 7.68 2.048 15.36 2.048 23.04 0 8.704-1.024 16.384-2.048 24.064l51.712 39.424c4.608 3.584 5.632 9.728 3.072 15.36l-49.152 83.456a12.507429 12.507429 0 0 1-15.36 5.632l-61.44-24.064a195.145143 195.145143 0 0 1-41.472 24.064l-9.728 63.488c0 3.584-4.608 8.704-11.264 8.704h-97.792a13.019429 13.019429 0 0 1-12.288-10.752l-9.728-63.488c-15.36-5.632-28.672-14.336-41.472-24.064l-60.416 25.088a12.507429 12.507429 0 0 1-15.36-5.632l-49.152-83.456c-3.072-4.608-2.048-11.264 3.072-15.36l51.712-39.424c-1.024-7.68-2.048-15.36-2.048-24.064 0-7.68 1.024-16.384 2.048-23.04l-51.712-39.424c-4.608-3.584-5.632-9.728-3.072-15.36l49.152-82.432c3.072-4.608 9.728-7.68 15.36-4.608l61.44 24.064c12.288-9.728 26.624-17.408 41.472-24.064l9.728-63.488a12.653714 12.653714 0 0 1 12.288-10.752h97.792a13.019429 13.019429 0 0 1 12.288 10.752l9.728 63.488c15.36 5.632 28.672 14.336 41.472 24.064l61.44-24.064c5.632-2.048 12.288 0 15.36 4.608l49.152 82.432c3.072 4.608 2.048 11.264-3.072 15.36l-53.76 40.448z m-182.272-60.416c-47.104 0-85.504 37.376-85.504 83.456s38.4 84.48 85.504 84.48a84.845714 84.845714 0 0 0 85.504-84.48c0-47.104-38.4-83.456-85.504-83.456z"  horiz-adv-x="1024" />

    
    <glyph glyph-name="guanlicopy" unicode="&#58985;" d="M741.717333 349.866667h-288.768a40.174933 40.174933 0 0 0-30.72 14.9504A55.9104 55.9104 0 0 0 409.6 401.066667c0 28.330667 19.2512 51.2 43.349333 51.2h288.768c24.029867 0 43.349333-22.766933 43.349334-51.2 0.068267-13.585067-4.471467-26.624-12.629334-36.2496-8.157867-9.6256-19.217067-15.018667-30.72-14.9504zM238.933333 230.4c0-29.627733 21.572267-51.2 51.2-51.2 13.6192 0 26.624 5.4272 36.2496 15.018667 9.591467 9.6256 14.984533 22.6304 14.9504 36.181333 0 13.550933-5.358933 26.555733-14.9504 36.1472a51.336533 51.336533 0 0 1-36.2496 15.018667 49.732267 49.732267 0 0 1-36.693333-14.5408A49.425067 49.425067 0 0 1 238.933333 230.4z m0.068267 169.301333c0-28.842667 21.538133-49.834667 51.131733-49.834666 13.585067 0 26.589867 5.290667 36.181334 14.609066 9.557333 9.352533 14.9504 22.016 14.9504 35.191467a49.3568 49.3568 0 0 1-24.6784 45.4656 52.497067 52.497067 0 0 1-52.906667 0c-16.247467-9.557333-25.736533-27.0336-24.6784-45.4656zM741.717333 179.2h-288.699733a40.174933 40.174933 0 0 0-30.72 14.9504A55.9104 55.9104 0 0 0 409.6 230.4c0 28.433067 19.2512 51.2 43.349333 51.2h288.768c24.029867 0 43.349333-22.766933 43.349334-51.2 0.068267-13.585067-4.471467-26.624-12.629334-36.2496-8.157867-9.6256-19.217067-15.018667-30.72-14.9504z m213.504-138.6496V588.458667c0 65.774933-61.7472 60.893867-61.7472 60.893866h-348.501333c-19.729067 0-32.085333 9.796267-32.085333 9.796267s-14.813867 24.2688-41.984 63.2832c-24.610133 43.8272-56.7296 36.522667-56.7296 36.522667h-269.312C68.266667 759.022933 68.266667 688.4352 68.266667 688.4352V45.397333c0-80.418133 61.7472-70.621867 61.7472-70.621866H900.778667c64.273067 0 54.408533 65.774933 54.408533 65.774933z"  horiz-adv-x="1024" />

    
    <glyph glyph-name="jiatianjia" unicode="&#59037;" d="M229.018 646.554a400.18 400.18 0 1 1 565.964 0 400.64 400.64 0 0 1-565.964 0zM726.374 394.24a30.72 30.72 0 1 0 0-61.44H542.72v-183.706a30.72 30.72 0 0 0-61.44 0V332.8H297.626a30.72 30.72 0 1 0 0 61.44H481.28V577.997a30.72 30.72 0 0 0 61.44 0V394.24z"  horiz-adv-x="1024" />

    
    <glyph glyph-name="shanchu" unicode="&#59026;" d="M758.784 713.216h-494.08c-45.568 0-82.432-36.864-82.432-82.432v-27.648h658.432v27.648c0.512 45.568-36.352 82.432-81.92 82.432m-143.872 54.784l12.288-86.528h-230.4l12.288 86.528h205.824m6.656 54.784h-219.648c-22.528 0-43.52-18.432-47.104-40.96l-15.872-114.688c-3.072-22.528 12.8-40.96 35.328-40.96h274.432c22.528 0 38.4 18.432 35.328 40.96l-15.872 114.688c-2.56 23.04-23.552 40.96-46.592 40.96m151.04-273.92h-521.216c-30.208 0-52.736-24.576-49.664-54.784l45.056-494.08c2.56-30.208 29.696-54.784 59.904-54.784h411.648c30.208 0 57.344 24.576 59.904 54.784l45.056 494.08c2.048 29.696-20.48 54.784-50.688 54.784m-370.176-494.08h-82.432l-27.648 384h109.568v-384z m164.352 0h-109.568v384h109.568v-384z m137.216 0h-82.432v384h109.568l-27.136-384z"  horiz-adv-x="1024" />

    
    <glyph glyph-name="pinglun" unicode="&#58886;" d="M512 858.66666667C249.856 858.66666667 37.33333333 672.71466667 37.33333333 443.33866667c0-131.09333333 69.57866667-247.808 177.99466667-323.936V-90.66666667000004l208 126.18666667a542.24 542.24 0 0 1 88.71466667-7.46666667c262.15466667 0 474.66666667 185.94133333 474.66666666 415.328S774.15466667 858.66666667 512 858.66666667zM274.66666667 384a59.328 59.328 0 1 0 59.328 59.328A59.328 59.328 0 0 0 274.66666667 384z m237.33333333 0a59.328 59.328 0 1 0 59.328 59.328A59.328 59.328 0 0 0 512 384z m237.33333333 0a59.328 59.328 0 1 0 59.328 59.328A59.328 59.328 0 0 0 749.33333333 384z"  horiz-adv-x="1024" />

    
    <glyph glyph-name="xia" unicode="&#59116;" d="M512 94.3104L5.12 613.9904l58.1632 59.5968L512 213.6064l448.7168 460.0832 58.1632-59.5968-506.88-519.7824z"  horiz-adv-x="1024" />

    
    <glyph glyph-name="yujing" unicode="&#59036;" d="M236.032-49.254h-73.42V290.714c0 192.921 156.364 349.388 349.388 349.388s349.389-156.467 349.389-349.388v-339.968h-80.691M537.293 499.302L364.953 215.45h137.831l-34.509-212.89 172.34 283.853H502.783l34.509 212.89zM801.587 811.11c16.18-9.42 21.709-30.208 12.39-46.387l-61.951-107.725-58.573 33.895 61.952 107.725c9.216 16.179 29.9 21.708 45.977 12.492h0.205zM511.897 890.88c20.276 0 36.66-15.258 36.66-34.202v-122.06h-73.319V856.78c0 18.841 16.384 34.099 36.66 34.099zM222.414 811.11c16.077 9.319 36.761 3.79 46.08-12.288 0 0 0-0.102 0.102-0.102l61.952-107.725-58.573-33.894-61.952 107.725c-9.318 16.179-3.788 36.864 12.39 46.284zM10.445 598.22c9.216 16.18 29.9 21.812 46.08 12.494 0 0 0.102 0 0.102-0.103l107.315-62.259-33.792-58.778-107.315 62.362c-16.179 9.318-21.709 30.106-12.39 46.285z m1003.11 0c9.319-16.178 3.789-36.966-12.39-46.386L893.85 489.677l-33.792 58.777 107.315 62.26c16.077 9.318 36.761 3.788 46.08-12.288 0-0.103 0.102-0.103 0.102-0.205zM42.905-49.253h938.292c20.275 0 36.761-16.487 36.761-36.762 0-20.275-16.486-36.762-36.761-36.762H42.906c-20.276 0-36.762 16.487-36.762 36.762-0.102 20.275 16.384 36.762 36.762 36.762z"  horiz-adv-x="1024" />

    
    <glyph glyph-name="dianzan" unicode="&#59042;" d="M909.73428693 478.78053013L655.96853973 478.78053013c98.33126613 363.16181867-67.75105707 381.71013013-67.75105706 381.71013014-70.39255147 0-55.79993173-55.66130773-61.12330667-64.94037547 0-177.60229547-188.63981227-316.76975467-188.63981227-316.76975467l0-503.6500256c0-49.71467093 67.75105707-67.6200736 94.32863787-67.6200736l381.28225173 0c35.88393707 0 65.1051968 94.10596693 65.1051968 94.10596694 94.32973013 320.752736 94.32973013 416.1892736 94.32973014 416.1892736C973.50127147 484.07552533 909.73428693 478.78053013 909.73428693 478.78053013L909.73428693 478.78053013 909.73428693 478.78053013zM909.73428693 478.78053013M234.316176 478.6135264L82.3625728 478.6135264c-31.38138987 0-31.86493653-30.822528-31.86493653-30.822528l31.38138986-507.94954987c0-32.3299264 32.38559467-32.3299264 32.38559467-32.3299264L245.7815712-92.48847787c27.3984096 0 27.15609067 21.38628053 27.15609067 21.38628054L272.93766187 440.09464427C272.93766187 479.10689707 234.316176 478.6135264 234.316176 478.6135264L234.316176 478.6135264 234.316176 478.6135264zM234.316176 478.6135264"  horiz-adv-x="1024" />

    
    <glyph glyph-name="xiazai" unicode="&#59322;" d="M460.8 123.345455c20.945455-20.945455 53.527273-20.945455 72.145455 0l288.581818 288.581818c20.945455 20.945455 20.945455 53.527273 0 72.145454-20.945455 20.945455-53.527273 20.945455-72.145455 0l-202.472727-202.472727V844.8c0 18.618182-9.309091 34.909091-25.6 44.218182-16.290909 9.309091-34.909091 9.309091-51.2 0-16.290909-9.309091-25.6-25.6-25.6-44.218182v-563.2l-202.472727 202.472727c-13.963636 13.963636-32.581818 18.618182-48.872728 13.963637-18.618182-4.654545-32.581818-18.618182-37.236363-37.236364-4.654545-18.618182 0-37.236364 13.963636-48.872727l290.909091-288.581818zM914.618182-51.2c-9.309091 16.290909-25.6 25.6-44.218182 25.6H153.6c-27.927273 0-51.2-23.272727-51.2-51.2 0-27.927273 23.272727-51.2 51.2-51.2h719.127273c18.618182 0 34.909091 9.309091 44.218182 25.6 6.981818 16.290909 6.981818 34.909091-2.327273 51.2z"  horiz-adv-x="1024" />

    
    <glyph glyph-name="xiazai1" unicode="&#59452;" d="M853.333333 238.933333v-130.844444c0-11.377778-4.266667-19.911111-11.377777-28.444445-7.111111-7.111111-17.066667-11.377778-28.444445-11.377777H210.488889c-11.377778 0-19.911111 4.266667-28.444445 11.377777-7.111111 7.111111-11.377778 17.066667-11.377777 28.444445v130.844444c0 11.377778 4.266667 19.911111 11.377777 28.444445 7.111111 7.111111 17.066667 11.377778 28.444445 11.377778h190.577778l55.466666-55.466667c15.644444-15.644444 34.133333-22.755556 55.466667-22.755556s39.822222 7.111111 55.466667 22.755556l55.466666 55.466667h190.577778c11.377778 0 19.911111-4.266667 28.444445-11.377778 7.111111-7.111111 11.377778-17.066667 11.377777-28.444445z m-133.688889 234.666667c4.266667-11.377778 2.844444-21.333333-5.688888-28.444444l-183.466667-184.888889c-4.266667-4.266667-11.377778-7.111111-18.488889-7.111111s-14.222222 2.844444-18.488889 7.111111L310.044444 443.733333c-8.533333 8.533333-9.955556 17.066667-5.688888 28.444445 4.266667 9.955556 12.8 15.644444 24.177777 15.644444h105.244445v184.888889c0 7.111111 2.844444 12.8 7.111111 18.488889 5.688889 5.688889 11.377778 7.111111 18.488889 7.111111h105.244444c7.111111 0 12.8-2.844444 18.488889-7.111111 5.688889-5.688889 7.111111-11.377778 7.111111-18.488889v-183.466667h105.244445c11.377778 0 19.911111-5.688889 24.177777-15.644444z m-31.288888-344.177778c5.688889 5.688889 7.111111 11.377778 7.111111 18.488889s-2.844444 12.8-7.111111 18.488889c-5.688889 5.688889-11.377778 7.111111-18.488889 7.111111s-12.8-2.844444-18.488889-7.111111c-5.688889-5.688889-7.111111-11.377778-7.111111-18.488889s2.844444-12.8 7.111111-18.488889c5.688889-5.688889 11.377778-7.111111 18.488889-7.111111 7.111111-1.422222 12.8 1.422222 18.488889 7.111111z m105.244444 0c5.688889 5.688889 7.111111 11.377778 7.111111 18.488889s-2.844444 12.8-7.111111 18.488889c-5.688889 5.688889-11.377778 7.111111-18.488889 7.111111s-12.8-2.844444-18.488889-7.111111c-5.688889-5.688889-7.111111-11.377778-7.111111-18.488889s2.844444-12.8 7.111111-18.488889c5.688889-5.688889 11.377778-7.111111 18.488889-7.111111 7.111111-1.422222 12.8 1.422222 18.488889 7.111111z"  horiz-adv-x="1024" />

    
    <glyph glyph-name="erjicaidanxiao" unicode="&#58885;" d="M763 214.84H338.84V640H255v-509h508c0.55 0 1 0.45 1 1v81.83c0 0.56-0.45 1.01-1 1.01z"  horiz-adv-x="1024" />

    
    <glyph glyph-name="kol" unicode="&#59007;" d="M-675.719782 907.006681M872.627431 832.169229 152.128793 832.169229c-47.553039 0-86.460164-38.907125-86.460164-86.460164l0-720.498638c0-47.553039 38.907125-86.460164 86.460164-86.460164l720.498638 0c47.552016 0 86.460164 38.907125 86.460164 86.460164L959.087595 745.710089C959.087595 793.262104 920.179446 832.169229 872.627431 832.169229L872.627431 832.169229zM512.378623 618.502895c57.351196 0 103.759155-45.99966 103.759155-102.735849 0-56.751538-37.291324-140.033313-103.759155-140.033313-67.681472 0-103.760179 83.281775-103.760179 140.033313C408.623561 572.503235 455.030497 618.502895 512.378623 618.502895L512.378623 618.502895zM704.892195 230.028233l0-19.454074 0-19.254529c0-21.48022-17.629519-38.907125-39.518039-38.907125L359.382067 152.412504c-21.884426 0-39.518039 17.426905-39.518039 38.907125l0 19.254529 0 19.454074 0 9.731642c0.198521 11.347442 4.662183 32.422434 12.972453 42.958394 20.666692 26.546609 45.791929 43.768853 81.661881 53.699016l33.639145-116.111484c0-10.541077 8.91709-19.259646 19.86135-19.259646 10.736529 0 19.652596 8.718569 19.652596 19.259646l0 92.403526c0 13.369495 11.148921 24.116257 24.728194 24.116257 13.573133 0 24.727171-10.746762 24.727171-24.116257l0-92.403526c0-10.541077 8.916067-19.259646 19.652596-19.259646 10.939143 0 19.856233 8.718569 19.856233 19.259646l33.644261 116.111484c35.865859-9.930163 60.990073-27.152407 81.661881-53.699016 8.309246-10.536984 12.772908-31.610952 12.972453-42.958394L704.894242 230.028233 704.892195 230.028233zM704.892195 230.028233"  horiz-adv-x="1024" />

    
    <glyph glyph-name="yuqingyujing" unicode="&#58887;" d="M819.2-64H204.8C128-64 64 0 64 76.8v70.4c6.4 0 6.4 6.4 12.8 6.4l211.2 211.2L448 211.2c12.8-12.8 38.4-12.8 51.2 0l192 192 32-32c12.8-12.8 32-6.4 38.4 12.8l38.4 153.6c6.4 19.2-12.8 38.4-32 32l-153.6-44.8c-19.2 0-19.2-25.6-6.4-38.4l32-32-166.4-172.8-160 160c-12.8 12.8-38.4 12.8-51.2 0L64 243.2v448C64 768 128 832 204.8 832h620.8C896 832 960 768 960 691.2v-620.8c0-70.4-64-134.4-140.8-134.4z"  horiz-adv-x="1024" />

    
    <glyph glyph-name="ArtboardCopy" unicode="&#59173;" d="M878.498909 849.454545H191.441455C163.002182 849.454545 139.636364 825.949091 139.636364 797.323636v-800.069818c0-28.578909 23.365818-52.130909 51.805091-52.130909h687.662545c28.439273 0 51.805091 23.552 51.805091 52.130909V796.718545c0 13.963636-5.492364 27.461818-15.313455 37.329455A52.130909 52.130909 0 0 1 878.498909 849.454545z m-411.741091-761.94909H285.509818a32.442182 32.442182 0 0 0 0 64.791272h180.596364c17.687273 0 32.209455-14.615273 32.209454-32.395636a31.930182 31.930182 0 0 0-31.557818-32.395636z m154.717091 157.602909H285.509818a32.442182 32.442182 0 0 0 0 64.791272h335.313455c17.687273 0 32.209455-14.615273 32.209454-32.395636a31.930182 31.930182 0 0 0-31.557818-32.395636z m154.717091 208.430545c-5.073455-3.165091-12.008727-0.651636-12.008727-0.651636l-102.306909 43.845818a20.014545 20.014545 0 0 1-17.035637 0l-100.398545-44.450909s-6.330182-1.303273-9.495273 1.256727c-3.165091 2.56-3.770182 8.285091-3.770182 8.285091V795.415273h248.785455v-331.729455s0.651636-6.981818-3.770182-10.146909z"  horiz-adv-x="1024" />

    
    <glyph glyph-name="biaoge" unicode="&#58893;" d="M980.296348-128C979.976633-128 979.659971-127.985883 979.342548-127.975963 979.025123-127.985883 978.70846-128 978.388746-128L43.282935-128C26.637212-128 13.142845-114.505633 13.142845-97.859911 13.142845-96.232346 13.275996-94.636066 13.524365-93.078318L13.524365 174.723623C13.275996 176.281371 13.142845 177.87765 13.142845 179.505215 13.142845 181.13278 13.275996 182.72906 13.524365 184.286808L13.524365 442.169227C13.275996 443.726975 13.142845 445.323254 13.142845 446.950819 13.142845 448.578384 13.275996 450.174664 13.524365 451.732412L13.524365 865.859911C13.524365 882.505633 27.018732 896 43.664455 896 47.381605 896 50.939662 895.323183 54.227221 894.092399L969.733581 894.092399C973.02114 895.323183 976.579196 896 980.296348 896 996.94207 896 1010.436437 882.505633 1010.436437 865.859911L1010.436437-97.859911C1010.436437-114.505633 996.94207-128 980.296348-128L980.296348-128ZM696.063859-67.719821 950.156259-67.719821 950.156259 149.365126 696.063859 149.365126 696.063859-67.719821 696.063859-67.719821ZM950.156259 209.645307 950.156259 416.81073 696.063859 416.81073 696.063859 209.645307 950.156259 209.645307 950.156259 209.645307ZM388.177123-67.719821 635.78368-67.719821 635.78368 149.365126 388.177123 149.365126 388.177123-67.719821 388.177123-67.719821ZM635.78368 209.645307 635.78368 416.81073 388.177123 416.81073 388.177123 209.645307 635.78368 209.645307 635.78368 209.645307ZM73.804544-67.719821 327.896944-67.719821 327.896944 149.365126 73.804544 149.365126 73.804544-67.719821 73.804544-67.719821ZM327.896944 209.645307 327.896944 416.81073 73.804544 416.81073 73.804544 209.645307 327.896944 209.645307 327.896944 209.645307ZM73.804544 707.147541 73.804544 477.090909 327.896944 477.090909 327.896944 707.147541 73.804544 707.147541 73.804544 707.147541ZM388.177123 707.147541 388.177123 477.090909 635.78368 477.090909 635.78368 707.147541 388.177123 707.147541 388.177123 707.147541ZM950.156259 707.147541 696.063859 707.147541 696.063859 477.090909 950.156259 477.090909 950.156259 707.147541 950.156259 707.147541Z"  horiz-adv-x="1024" />

    
    <glyph glyph-name="gengduo" unicode="&#58959;" d="M118.528 504.512a118.528 118.528 0 1 1 0-237.056 118.528 118.528 0 0 1 0 237.056z m393.472 0a118.528 118.528 0 1 1 0-237.056 118.528 118.528 0 0 1 0 237.056z m393.472 0a118.528 118.528 0 1 1 0-237.056 118.528 118.528 0 0 1 0 237.056z"  horiz-adv-x="1024" />

    
    <glyph glyph-name="gengduo1" unicode="&#58901;" d="M512-128A512 512 0 1 0 1024 384 512 512 0 0 0 512-128z m-269.473684 592.842105A80.842105 80.842105 0 1 1 323.368421 384 80.842105 80.842105 0 0 1 242.526316 464.842105z m269.473684 0A80.842105 80.842105 0 1 1 592.842105 384 80.842105 80.842105 0 0 1 512 464.842105z m269.473684 0A80.842105 80.842105 0 1 1 862.315789 384 80.842105 80.842105 0 0 1 781.473684 464.842105z"  horiz-adv-x="1024" />

    
    <glyph glyph-name="lingyu" unicode="&#59232;" d="M476.16 793.6c71.68 5.12 143.36-5.12 204.8-35.84 87.04-40.96 158.72-112.64 199.68-194.56 10.24 0 35.84-76.8 40.96-153.6 5.12-40.96-5.12-112.64-30.72-179.2-35.84-81.92-92.16-153.6-168.96-194.56-15.36-25.6-107.52-61.44-199.68-61.44-20.48 0-40.96 0-61.44 5.12-87.04 10.24-174.08 51.2-235.52 117.76-56.32 56.32-97.28 133.12-112.64 215.04-5.12 0-10.24 71.68 0 138.24 10.24 87.04 51.2 163.84 112.64 225.28 35.84 46.08 122.88 97.28 215.04 112.64-20.48-5.12 20.48 5.12 61.44 5.12h-25.6z m40.96-61.44c15.36 0 30.72-5.12 40.96-15.36 10.24-5.12 15.36-20.48 20.48-30.72 0-10.24 0-15.36-10.24-20.48-5.12-5.12-15.36-5.12-25.6-5.12 0-20.48-5.12-40.96-5.12-61.44 0-10.24-5.12-15.36-10.24-20.48-10.24-10.24-25.6-10.24-40.96-15.36-5.12-5.12-10.24-15.36-5.12-20.48l15.36-15.36c15.36-5.12 30.72-5.12 46.08 0 5.12 0 0 15.36 5.12 15.36 15.36 5.12 30.72 5.12 46.08 0 0-5.12-5.12-15.36-10.24-20.48-15.36-25.6-25.6-51.2-40.96-76.8-5.12-15.36 0-30.72 0-46.08 0-10.24 0-25.6-5.12-35.84 0-5.12-5.12-10.24-10.24-5.12-10.24 5.12-10.24 10.24-15.36 20.48-5.12 15.36-10.24 30.72-20.48 46.08h-10.24c-15.36 0-30.72 10.24-46.08 10.24-5.12 0-10.24-10.24-10.24-15.36 0-5.12 0-15.36-10.24-15.36h-25.6c5.12-30.72 5.12-61.44 5.12-92.16 0-5.12 5.12-5.12 5.12-5.12 15.36 0 30.72 10.24 46.08 10.24 15.36 0 25.6-10.24 35.84-20.48 10.24-5.12 15.36-10.24 25.6-15.36 15.36-10.24 30.72-25.6 46.08-40.96 5.12-5.12 10.24-5.12 15.36-5.12 10.24-5.12 5.12-15.36 10.24-25.6 5.12-5.12 5.12 0 10.24 0 15.36 0 30.72-5.12 35.84-20.48 5.12-10.24 5.12-15.36 0-25.6s-20.48-20.48-25.6-30.72c-15.36-25.6-20.48-56.32-25.6-81.92h20.48c5.12 0 5.12-5.12 5.12-10.24 76.8 20.48 143.36 66.56 189.44 122.88 25.6 20.48 61.44 87.04 71.68 163.84-20.48-66.56-35.84-87.04-56.32-97.28-5.12-5.12-15.36-5.12-20.48 0-5.12 5.12-5.12 10.24 0 15.36-15.36 20.48-25.6 40.96-46.08 61.44-10.24 10.24-20.48 25.6-25.6 40.96-5.12 15.36 0 35.84 5.12 51.2 15.36 25.6 35.84 51.2 61.44 66.56-10.24 20.48-10.24 40.96 5.12 56.32 5.12 10.24 20.48 15.36 30.72 10.24 10.24-5.12 15.36-15.36 20.48-25.6 5.12 0 5.12 0 10.24-5.12-20.48 61.44-61.44 117.76-117.76 163.84-56.32 40.96-122.88 71.68-194.56 71.68 10.24-5.12-5.12 0-15.36-5.12zM230.4 465.92c-5.12-10.24-10.24-15.36-15.36-15.36-5.12-5.12-10.24-5.12-20.48-5.12s-20.48 5.12-25.6 10.24c-10.24-56.32-10.24-112.64 5.12-168.96 20.48-76.8 66.56-143.36 128-189.44 20.48-20.48 92.16-56.32 168.96-66.56-30.72 5.12-25.6 5.12-20.48 5.12 15.36 5.12 30.72 5.12 40.96 5.12-5.12 20.48-5.12 40.96-5.12 61.44-25.6 20.48-51.2 40.96-71.68 66.56-5.12 10.24-10.24 20.48-10.24 30.72 0 15.36 0 30.72 5.12 46.08v10.24c-15.36 0-25.6-5.12-40.96-5.12-5.12 0-5.12 0-10.24 5.12-5.12 15.36-15.36 30.72-30.72 40.96-5.12 5.12-10.24 5.12-15.36 5.12-10.24 0-20.48 5.12-30.72 10.24-10.24 10.24-15.36 25.6-20.48 35.84 5.12 35.84 5.12 61.44 5.12 87.04 0 5.12-5.12 10.24-10.24 15.36-10.24 5.12-20.48 10.24-25.6 15.36z m624.64-35.84c5.12-15.36 5.12-35.84 5.12-51.2 0 25.6 0 51.2-5.12 76.8v-25.6z"  horiz-adv-x="1024" />

    
    <glyph glyph-name="shijian1" unicode="&#58950;" d="M516.83-70.38093749999996c-247.374375 0-447.8690625 200.495625-447.8690625 447.8690625 0 247.335 200.495625 447.8334375 447.8690625 447.8334375 247.335 0 447.8334375-200.495625 447.8334375-447.8334375 0-247.374375-200.495625-447.8690625-447.8334375-447.8690625l0 0zM784.131875 230.34843750000005l-293.2453125 86.26875c0 0.358125 0.2071875 0.5990625 0.2071875 0.93375l0 314.08875c0 21.67125-18.4546875 39.223125-41.2021875 39.223125-22.7709375 0-41.14125-17.5546875-41.14125-39.223125l0-314.08875c0-9.016875 3.770625-16.9246875 9.106875-23.53125-4.8571875-19.8196875 6.5803125-40.1184375 27.2690625-46.21125l314.3296875-92.5115625c21.714375-6.3646875 44.8209375 5.2453125 51.639375 25.9396875 6.789375 20.7571875-5.2790625 42.75-26.9671875 49.1128125l0 0z"  horiz-adv-x="1024" />

    
    <glyph glyph-name="gengduo2" unicode="&#59149;" d="M831.2 590H192c-27.6 0-50 22.4-50 50s22.4 50 50 50h639.2c27.6 0 50-22.4 50-50s-22.3-50-50-50zM831.2 332.8H192c-27.6 0-50 22.4-50 50s22.4 50 50 50h639.2c27.6 0 50-22.4 50-50s-22.3-50-50-50zM831.2 78.2H192c-27.6 0-50 22.4-50 50s22.4 50 50 50h639.2c27.6 0 50-22.4 50-50s-22.3-50-50-50z"  horiz-adv-x="1024" />

    
    <glyph glyph-name="jiaoyu" unicode="&#58933;" d="M341.333333 682.666667v-768h512V682.666667z m426.666667-213.333334h-85.333333V597.333333h85.333333zM234.666667 682.666667a64 64 0 0 0-60.16 42.666666H170.666667v-720.64A87.893333 87.893333 0 0 1 256-85.333333h42.666667V682.666667zM234.666667 853.333333H810.666667v-128H234.666667a64 64 0 0 0 0 128z"  horiz-adv-x="1024" />

    
    <glyph glyph-name="changshangmingxi" unicode="&#59522;" d="M929.9 56.6h-30.3V474.8c-0.2 65.9-53.6 119.2-119.5 119.5H600.9V654c-0.2 65.9-53.6 119.3-119.5 119.5H242.5c-65.9-0.2-119.3-53.6-119.5-119.5v-597.3H93.1c-16.3 0.2-29.7-13-29.8-29.3v-0.6c-0.1-16.3 13.1-29.7 29.4-29.9h836.6c16.3-0.1 29.7 13.1 29.9 29.4v0.5c0.2 16.4-12.9 29.7-29.3 29.8zM242.5 564.9c0.1 16.3 13.6 29.5 29.9 29.3h179.7c16.3-0.2 29.4-13.6 29.3-29.9v-0.5c-0.1-16.3-13.5-29.4-29.8-29.3H272.4c-16.7 0-29.8 13.2-29.8 29.8-0.1 0.3-0.1 0.4-0.1 0.6z m29.9-149.8h179.8c16.3-0.2 29.4-13.6 29.2-29.9v-0.6c-0.2-16.3-13.5-29.4-29.8-29.3H272.4c-16.7 0-29.8 13.2-29.8 29.9-0.1 16.7 13 29.9 29.8 29.9z m179.2-238.9H272.4c-16.7 0-29.8 13.2-29.8 29.9v0.6c0.2 16.3 13.6 29.4 29.8 29.2h179.8c16.3-0.2 29.4-13.5 29.3-29.8v-0.6c-0.2-16.4-13.6-29.5-29.9-29.3z m388.2-119.6H600.9V534.5h179.2c32.9 0 59.7-26.8 59.7-59.7v-418.2z m0 0M750.2 415.1h-59.7c-16.3 0.1-29.7-13-29.9-29.3v-0.5c-0.1-16.3 13.1-29.7 29.4-29.9h60.2c16.3-0.1 29.7 13 29.8 29.3v0.5c0.2 16.2-12.9 29.6-29.1 29.8-0.2 0.1-0.5 0.1-0.7 0.1z m0-179.2h-59.7c-16.3 0.2-29.7-13-29.9-29.3v-0.5c0-16.7 13.2-29.9 29.9-29.9h59.7c16.3-0.1 29.7 13 29.8 29.3v0.5c0.2 16.2-12.8 29.6-29.1 29.8-0.2 0.1-0.4 0.1-0.7 0.1z m0 0"  horiz-adv-x="1024" />

    
    </font>
</defs>
</svg>
